<svg xmlns="http://www.w3.org/2000/svg" xmlns:xlink="http://www.w3.org/1999/xlink" viewBox="0 0 991.46 905.52"><defs><style>.cls-1,.cls-29{fill:none;}.cls-2{clip-path:url(#clip-path);}.cls-3,.cls-31{fill:#fff;}.cls-16,.cls-17,.cls-4,.cls-8{fill:#a77d3a;}.cls-5{font-size:54.34px;font-family:Wreath-HalReg, Wreath Halftone;}.cls-24,.cls-5,.cls-6{fill:#2c2c2c;}.cls-6{font-size:41.87px;letter-spacing:0.03em;}.cls-14,.cls-6{font-family:Cormorant-Regular, Cormorant;}.cls-7{letter-spacing:0.01em;}.cls-8{font-size:13.48px;letter-spacing:0.4em;}.cls-16,.cls-17,.cls-24,.cls-28,.cls-31,.cls-8{font-family:CormorantInfant-Medium, Cormorant Infant;font-weight:500;}.cls-9{letter-spacing:0.39em;}.cls-10{letter-spacing:0.4em;}.cls-11{letter-spacing:0.35em;}.cls-12{letter-spacing:0.32em;}.cls-13{letter-spacing:0.35em;}.cls-14{font-size:9px;fill:#444242;}.cls-15{letter-spacing:-0.05em;}.cls-16{letter-spacing:0.4em;}.cls-17{letter-spacing:0.35em;}.cls-18{letter-spacing:-0.07em;}.cls-19{letter-spacing:-0.01em;}.cls-20{letter-spacing:-0.03em;}.cls-21{letter-spacing:-0.02em;}.cls-22{letter-spacing:-0.08em;}.cls-23{letter-spacing:-0.03em;}.cls-24,.cls-28,.cls-31{font-size:11px;}.cls-24,.cls-28{letter-spacing:0.2em;}.cls-25{letter-spacing:0.12em;}.cls-26{letter-spacing:0.19em;}.cls-27{letter-spacing:0.19em;}.cls-28{fill:#5b5b5f;}.cls-29{stroke:#c79b5d;stroke-miterlimit:10;stroke-width:0.5px;}.cls-30{fill:#a67d39;}.cls-31{letter-spacing:0.5em;}</style><clipPath id="clip-path"><rect class="cls-1" x="86.73" width="434" height="419.3"/></clipPath></defs><title>r_1_1</title><g id="Capa_2" data-name="Capa 2"><g id="Capa_1-2" data-name="Capa 1"><g class="cls-2"><rect class="cls-3" x="557.46" width="434" height="424"/><path class="cls-4" d="M503.34,148c2.83,2.31,5.39,5,8,7.5.77.74,1.79,1.55.42,3.32l-9.41-7.55a8.66,8.66,0,0,0,.14,3.9c.4,1.78.89,3.55,1.24,5.34.25,1.25.08,2.33-1.95,2.28-2.13-3.38-1.74-7.8-4-11.92-1.2,2.58-2,4.8-3.22,6.81s-1.27,4.86-4.83,5.74a39.84,39.84,0,0,1,1.26-4.65c1.45-3.49,2.87-7,4.63-10.33a7.31,7.31,0,0,0-.34-7.68l-12.94-3.19c-2.95,3-3.29,3.76-3.32,7.35,0,4,0,8-.09,12,0,1.42,0,3-1.84,4.43-2.33-4.19-.71-8.67-1.8-13-3.4,2.52-4.11,7.34-8.73,9.15-.79-5.06,3.85-7.48,4.35-11.84-2.31.81-4.2,1.62-6.16,2.12-1.76.44-3.61,2.25-5.82-.23a30.13,30.13,0,0,1,3.55-2.19c3.35-1.47,6.72-2.91,10.16-4.17a7.74,7.74,0,0,0,4.89-4.55l-5.64-9.87a8,8,0,0,0-6.77,3.19c-2.64,3.16-5.4,6.23-8.19,9.25-.94,1-1.85,2.42-4.08,1.69.93-4.53,5.26-6.75,7.3-11-1.42.24-2.39.36-3.35.58-1.89.43-3.76,1-5.67,1.34-1.22.24-2.56.45-3.26-1.53,2.71-3.07,7.34-2.38,10.64-4.75-3.23-2.5-7.83-2.22-10.44-5.63,1.62-1.77,3.08-.86,4.38-.46,3.39,1.06,6.79,2.12,10.06,3.46a8.06,8.06,0,0,0,7.42-.42c.72-3.78,1.42-7.43,2.08-10.86a8.82,8.82,0,0,0-7.68-2.17c-4,.61-7.94,1-11.92,1.43-1.42.15-3,.5-4.27-1.45,3.69-2.74,8.42-1.49,13-3.55-2.39-1.25-4.22-2.09-5.93-3.14s-4-1.29-4-4.34c4.37-.87,7.35,2.89,11.48,3.3-.9-4-4.23-6.93-4.24-11.08,2.22-.49,2.8,1,3.45,2.06,1.93,3.24,3.83,6.51,5.57,9.86a7.45,7.45,0,0,0,5.82,4.34l11.58-9.46a6.4,6.4,0,0,0-2.43-5.35c-3.09-2.89-6.18-5.79-9.19-8.77-.9-.88-2.19-1.73-1.52-3.91,4.39,1.71,6.75,6,10.88,8.32-.16-4.56-2.37-8.45-1.13-12.75,3.67,2.85,2.82,7.75,5.16,11.39,2.45-3.57,2.86-8,6.33-10.84a6.37,6.37,0,0,1-.08,3.56c-1.36,3.76-2.83,7.49-4.31,11.2-.62,1.55-1.08,3,.3,5l12.75,3.65a7.81,7.81,0,0,0,3.18-7c-.11-3.89-.08-7.78-.07-11.67,0-1.22-.14-2.55,1.79-3.21,2.39,3.44.48,7.76,2.1,11.42,3.12-2.14,3.48-6.45,6.82-7.92,1.7.69,1.73,1.77,1.13,2.91S515.1,85.77,514.4,87c-.91,1.51-1.77,3-2.65,4.58a7.31,7.31,0,0,0,3.64-.34c2.18-.68,4.35-1.43,6.54-2.06,1.19-.34,2.49-.69,3.45,1.32a35.51,35.51,0,0,1-4.1,2.21c-3.42,1.3-6.87,2.55-10.37,3.61a6.73,6.73,0,0,0-5.11,5l5.37,9.62c5.91-1,5.9-1,9.17-4.78,2.24-2.61,4.46-5.23,6.8-7.74A14.62,14.62,0,0,1,530,96.53c.24.24.47.48.71.71-.53,4.07-4.85,6.13-6.12,9.93,3.84.46,7-2.88,11.25-1-2.62,4.5-7.95,2.82-11,5.71,3.48,2.86,8.92,2.57,11.82,6.91-2.73.65-3.07.66-5.37-.25-3.3-1.29-6.68-2.44-9.84-4s-5.69-.86-8.59.66c-.3,3.62-.59,7.22-.88,10.63,3,2.41,6,3.33,9.55,2.58a99.32,99.32,0,0,1,10.21-1.34c1.27-.14,2.76-.52,3.8,1.47-3.34,2.5-7.73,1.49-11.36,3.35,2.63,2.78,7.08,2.62,8.91,6-.86,2-2.09,1.63-3.29,1.1-1.57-.7-3.07-1.56-4.66-2.2-1.17-.47-2.24-1.49-4.09-1,1.06,2.27,2.14,4.27,2.94,6.37.75,1.95,2.74,3.78.76,6.77a27.85,27.85,0,0,1-2.8-3.57,85.13,85.13,0,0,1-4.69-9.54c-1.37-3.55-4-5-7.3-5.9l-10.62,9.73A10.38,10.38,0,0,0,503.34,148ZM486,100.55c-3.4,2.82-6.31,5.24-9.69,8a116.31,116.31,0,0,0,13.06,6.32C488.17,109.85,487.15,105.51,486,100.55Zm14.64.66L489,98c1.25,5.22,2.34,9.71,3.42,14.2l.89.2Zm-16.88,33.45a71.26,71.26,0,0,0,11.14,3c-1.18-4.93-2.22-9.27-3.25-13.62l-.86-.22Zm23.35-6.33-11.93-5.78c.84,4.94,1.9,9,3.2,13.93Zm-10-14.17.42.63A87,87,0,0,0,508,112c-1.3-2.73-2.47-5.21-4-8.48ZM475,112.65c-.46,3.18-.83,5.76-1.3,9l11-3.08c.07-.33.13-.66.19-1Zm.17,12.94,4.75,7.5c2.32-3.58,4.29-6.63,6.26-9.69l-.53-.73A108.54,108.54,0,0,0,475.13,125.59Zm33.26-1.15c.55-2.86,1-5.33,1.5-7.82-2.68-.4-8.27,1.07-11.29,3Z"/><path class="cls-4" d="M131.16,625.23c-4.6,1.17-9.24,2.19-13.86,3.31-1.36.33-2.7.8-4.62,1.38,3.58,5,5.22,11.31,12.91,10.39a5.39,5.39,0,0,1,2.48.46c.47.18.77.77,1.32,1.35-3,2.22-6.43.76-9.75,2.19-.68,1.36-1.53,3-2.45,4.86,1.31,1,2.31,1.86,3.38,2.6,2.41,1.66,4.88,3.21,7.25,4.92a18.7,18.7,0,0,1,2.36,2.49c-.6.59-.87,1.07-1.1,1.05-5.44-.44-8.78-5.32-13.79-6.75-2.65,2.65-3.63,5.5-2,9a11.87,11.87,0,0,1,1,3.14,10.82,10.82,0,0,1-.29,2.59c-3.9-1.49-3.16-5.68-5.52-7.66-4.45-1-10.1-1.11-12.49-.14.63,7,3.56,13.7,3.44,21.07-2.54,0-2.87-1.43-3.2-2.82-1.16-4.85-2.27-9.72-3.42-14.57-.3-1.26-.69-2.49-1.21-4.34-2.42,1.42-4.29,2.75-6.35,3.68-4.23,1.92-6.94,4.69-6.71,9.7a2.85,2.85,0,0,1-2.27,3.32c-.18-3.25-.33-6.2-.51-9.43l-5.06-3c-.94,1.23-1.73,2.13-2.37,3.11-1.88,2.85-3.69,5.73-5.55,8.59-.91,1.41-1.94,2.55-4.24.91,1.61-5.46,6.22-9.39,8.19-14.73-2.5-2.6-5.06-4.14-8.79-2.89-1.65.56-3.54,1.71-5.65.24,1.9-3,5.67-2.27,8.23-4.72.45-3.86.94-8.13,1.44-12.4L61.23,641a13.83,13.83,0,0,1-2.34,1c-5.46,1.28-10.92,2.53-16.39,3.71-1.71.37-3.51,1.16-5.29-.12-.41-2.34,1.31-2.59,2.83-2.95,5.8-1.38,11.61-2.72,17.42-4.1,1.25-.29,2.49-.69,4.32-1.21-1.51-2.37-2.88-4.22-3.91-6.23-1.76-3.48-4.23-5.43-8.33-5.19-1.58.09-3.44.08-4.73-2,3-2.33,6.7-.58,10.09-2l2.7-5.22c-3.84-3.51-9-4.92-11.84-9.17.52-.54.77-1,1-1,5.11.27,8.13,5,13.23,6.18l2.62-4.42c-.24-3.64-2.27-6.44-1.66-9.7.76,0,1.34-.17,1.43,0,1.51,2.56,2.95,5.15,4.55,8l13.29,1.13c-.62-3.2-1.1-5.8-1.62-8.4-.71-3.58-1.52-7.14-2.15-10.74-.22-1.22-.69-2.76,1.71-3.4a17.79,17.79,0,0,1,1.59,3.32c1.26,5,2.36,10,3.54,14.92.27,1.11.64,2.18,1.1,3.71L95.5,601c1.44-3.55.61-7.12,3.23-10.26,1.93,3.57.08,7.06,1,10.48l4.54,2.72c1.22-1.58,2.28-2.88,3.26-4.24,1.35-1.88,2.6-3.83,4-5.68.72-1,1.65-1.46,3.06,0-1,4.49-4.92,7.76-6.49,12.25,2.59,2.78,5.24,4.62,9.31,3.26,1.64-.54,3.6-1.58,5.56-.19-.49,2.13-2.3,2.13-3.69,2.64-1.58.58-3.19,1.05-4.85,1.59-.6,4.13-1.17,8-1.76,12.1,7.65-.65,14.31-3.86,21.89-3.6C134.15,624.81,132.46,624.9,131.16,625.23ZM87.31,639.57l-1-.19-14,21.69,5.09,3.55L91,656.27ZM63.4,655.49,68.67,659c5.3-7.13,9.61-14.44,14.19-21.58l-.57-.79-16.6,3.91C64.91,645.67,64.18,650.44,63.4,655.49Zm34.39-52.1-12.65,7.13a117.51,117.51,0,0,0,3.51,16.54l.87.21,13.12-20.14Zm-40.05,20.8,8.18,12.42L81.82,633l.18-.85c-6.66-4.66-13.66-8.8-21-13.38Zm36.92,31.27,14.18,1.11c1-1.86,2-3.49,3.19-5.61L91.92,638.27l-.85.57C92.23,644.23,93.4,649.62,94.66,655.46ZM64,613.48a13.51,13.51,0,0,0-.64,2.11l20.49,12.92.76-.5c-.7-5.34-2.23-10.51-3.35-16L66.08,610.3C65.2,611.65,64.56,612.53,64,613.48Zm47.29-.8-5.2-3.46c-5.22,6.54-8.88,13.73-13.67,20.38,3,.6,12.28-1.47,16.43-3.63C109.67,621.65,110.47,617.27,111.32,612.68ZM94.45,633.92c0,.3-.06.61-.1.91,6,4.54,12.63,8.18,19.37,12.45l3-4.93-8.34-11.72Z"/><text class="cls-5" transform="translate(172.3 196.63)">Intercambio de</text><text class="cls-6" transform="translate(164.27 246.81)">REYES M<tspan class="cls-7" x="171.34" y="0">A</tspan><tspan x="201.27" y="0">GOS</tspan></text><text class="cls-8" transform="translate(125.56 338.58)">GR<tspan class="cls-9" x="29.61" y="0">A</tspan><tspan class="cls-10" x="44.35" y="0">CIAS POR </tspan><tspan class="cls-11" x="155.79" y="0">P</tspan><tspan x="167.88" y="0">A</tspan><tspan class="cls-12" x="182.79" y="0">R</tspan><tspan class="cls-10" x="196.25" y="0">TICI</tspan><tspan class="cls-11" x="244.44" y="0">P</tspan><tspan x="256.53" y="0">AR EN EL</tspan><tspan x="47.8" y="16.17">INTE</tspan><tspan class="cls-13" x="99.6" y="16.17">R</tspan><tspan x="113.53" y="16.17">CAMBIO DE REYES</tspan><tspan class="cls-10"><tspan x="66.38" y="32.34">DEL EQUIPO GLOBAL</tspan></tspan></text><text class="cls-14" transform="translate(144.51 581.85)">EL INTE<tspan class="cls-15" x="31.81" y="0">R</tspan><tspan x="37.44" y="0" xml:space="preserve">CAMBIO SERÁ EL DÍA  </tspan><tspan class="cls-16" x="129.52" y="0">6 DE ENE</tspan><tspan class="cls-17" x="194.42" y="0">R</tspan><tspan class="cls-16" x="203.73" y="0">O DEL 2022</tspan><tspan x="283.36" y="0">. A </tspan><tspan x="-2.87" y="10.8">TU CORREO LLEGARÁ UNA INVI</tspan><tspan class="cls-18" x="130.9" y="10.8">T</tspan><tspan class="cls-19" x="135.98" y="10.8">A</tspan><tspan x="142.19" y="10.8">CIÓN A LA JUN</tspan><tspan class="cls-18" x="204.09" y="10.8">T</tspan><tspan x="209.17" y="10.8">A CON LA HORA DEL </tspan><tspan x="115.82" y="21.6">INTE</tspan><tspan class="cls-15" x="135.89" y="21.6">R</tspan><tspan x="141.52" y="21.6">CAMBI</tspan><tspan class="cls-20" x="169.39" y="21.6">O</tspan><tspan x="175.97" y="21.6">.</tspan></text><text class="cls-14" transform="translate(149.8 632.46)">POR <tspan class="cls-21" x="19.94" y="0">F</tspan><tspan class="cls-22" x="24.32" y="0">A</tspan><tspan class="cls-23" x="29.93" y="0">V</tspan><tspan x="35.7" y="0">OR TE PEDIMOS QUE TE ASEGURES QUE EL REGALO LLEGUE </tspan><tspan x="4.56" y="10.8">ANTES DEL </tspan><tspan class="cls-16" x="52.44" y="10.8">4 DE ENE</tspan><tspan class="cls-17" x="117.16" y="10.8">R</tspan><tspan class="cls-16" x="126.47" y="10.8">O DEL 2022</tspan><tspan x="206.1" y="10.8" xml:space="preserve"> A LA DIRECCIÓN </tspan><tspan x="92.64" y="21.6">INDICA</tspan><tspan class="cls-19" x="123.72" y="21.6">D</tspan><tspan x="129.83" y="21.6">A EN LA LIS</tspan><tspan class="cls-18" x="177.16" y="21.6">T</tspan><tspan x="182.24" y="21.6">A.</tspan></text><text class="cls-24" transform="translate(116.62 413.56)">SE REALIZO EL SO<tspan class="cls-25" x="125.97" y="0">R</tspan><tspan x="134.76" y="0">TEO Y TE </tspan><tspan class="cls-26" x="203.38" y="0">T</tspan><tspan x="212.43" y="0">OCÓ </tspan><tspan class="cls-27" x="248.01" y="0">D</tspan><tspan x="257.74" y="0">ARLE REGALO A:</tspan></text><text class="cls-28" transform="translate(116.62 413.56)">SE REALIZO EL SO<tspan class="cls-25" x="125.97" y="0">R</tspan><tspan x="134.76" y="0">TEO Y TE </tspan><tspan class="cls-26" x="203.38" y="0">T</tspan><tspan x="212.43" y="0">OCÓ </tspan><tspan class="cls-27" x="248.01" y="0">D</tspan><tspan x="257.74" y="0">ARLE REGALO A:</tspan></text><line class="cls-29" x1="175.3" y1="432.87" x2="417.63" y2="432.87"/><line class="cls-29" x1="175.3" y1="476.17" x2="417.63" y2="476.17"/><path class="cls-30" d="M364.53,542.61H229.59a17.83,17.83,0,0,1-17.83-17.83h0a17.83,17.83,0,0,1,17.83-17.84H364.53a17.83,17.83,0,0,1,17.83,17.84h0A17.83,17.83,0,0,1,364.53,542.61Z"/><text class="cls-31" transform="translate(229.07 528.03)">LINK AMAZON</text><path class="cls-4" d="M231.11,722.08A31.11,31.11,0,0,1,222,702.17a21.71,21.71,0,0,1,6.34-17.58,42.22,42.22,0,0,1,10.15-7.74,23.82,23.82,0,0,1,13.73-2.92c8.34.79,15.31,4.19,19.86,11.44a30.32,30.32,0,0,1,4.21,19,28.18,28.18,0,0,1-6.48,15.74,22.16,22.16,0,0,1-10.34,7.26,32.26,32.26,0,0,1-15,1.29C238.83,727.53,234.54,725.58,231.11,722.08Zm8.34-43.73a42.09,42.09,0,0,0-8.72,6.28c-6.08,5.61-8,12.52-6.55,20.5a28.88,28.88,0,0,0,8.38,15.73,22.52,22.52,0,0,0,15.68,6.24,30.76,30.76,0,0,0,11.41-1.63,20.62,20.62,0,0,0,10.61-8.76c5.65-9,5.42-18.39,1.56-27.86-2.72-6.71-9.15-11.34-17-12.79A22.82,22.82,0,0,0,239.45,678.35Z"/><path class="cls-4" d="M246.54,698.2a5.34,5.34,0,0,0,1.35,3.9,2.92,2.92,0,0,0,3.25,1.06,3,3,0,0,0,2.34-2.75,9.09,9.09,0,0,0-.74-3.67,2.87,2.87,0,0,0-3.06-1.87A4.29,4.29,0,0,0,246.54,698.2Z"/><path class="cls-4" d="M232.48,715.78a17.08,17.08,0,0,0,9.54,7.09c8,2.55,18.32-.65,23.61-7.46-.49.36-1,.71-1.48,1.1a27.11,27.11,0,0,1-13.38,6c-6.44.84-12.09-.81-16.68-5.59-.32-.34-.66-.67-1-1A4.6,4.6,0,0,0,232.48,715.78Z"/><path class="cls-4" d="M231.77,698c2.13.35,3.49-.58,3.78-2.6a3.63,3.63,0,0,0-2.84-3.86,3.72,3.72,0,0,0-3.81,3A3.2,3.2,0,0,0,231.77,698Z"/><path class="cls-4" d="M262.44,705.78a2.86,2.86,0,0,0,2.37,3.22,3.46,3.46,0,0,0,3.3-1.93,3.27,3.27,0,0,0-.14-3.79,2.34,2.34,0,0,0-2.54-.83A5,5,0,0,0,262.44,705.78Z"/><path class="cls-4" d="M241.75,716.76c2.17.41,3.3-.14,3.64-1.79a3.81,3.81,0,0,0-2.79-4.32,3,3,0,0,0-3.41,2.67A2.82,2.82,0,0,0,241.75,716.76Z"/><path class="cls-4" d="M255.74,686.61a23.23,23.23,0,0,0,2.75-.26,1.62,1.62,0,0,0,1.33-2.13,4,4,0,0,0-5.24-2.68c-1.47.67-2.1,1.58-1.91,2.77S253.81,686.29,255.74,686.61Z"/><path class="cls-4" d="M245.71,726.62c-.16.28-.33.56-.71,1.19,1.55-.33,2.86-.49,4.1-.89a28.81,28.81,0,0,0,14.69-10,50.66,50.66,0,0,0,6.86-11.69,9.9,9.9,0,0,0,.71-4.88c-1.78,7.9-6.37,14.06-12.1,19.44-3.82,3.59-8.62,5.51-13.62,6.92Z"/><path class="cls-4" d="M245.64,726.67c1.1-.65,2.18-1.33,3.31-1.94a37.93,37.93,0,0,0,16.86-18.58,7.57,7.57,0,0,0,.59-2.2c-5.35,11.58-14.19,19.23-26.18,23.39,2,.63,3.68-.54,5.49-.72Z"/><path class="cls-4" d="M272.69,705.79c-3.42,10.86-10.87,18-22,21.89C259.12,728.17,272.14,715.91,272.69,705.79Z"/><path class="cls-4" d="M236.07,724.83a9.62,9.62,0,0,0,5.86.07,19.68,19.68,0,0,0,6.79-3.15,36.23,36.23,0,0,0,7.33-6.71,9,9,0,0,0,1.14-1.84C251.45,719.46,245.05,724.41,236.07,724.83Z"/><path class="cls-4" d="M235.66,723.68c6.38.13,10.81-3.6,15.14-7.51C246.22,719.62,241.36,722.51,235.66,723.68Z"/><path class="cls-4" d="M241,714.66c-4,2.08-8.14,3.25-12.75,2.09C230.6,719.39,237.13,718.34,241,714.66Z"/><path class="cls-4" d="M231.22,720.53c4,1.5,10.09-.15,12.7-3.37A21.3,21.3,0,0,1,231.22,720.53Z"/><path class="cls-4" d="M225.64,713c1.86,2.59,7.27,2.76,11.49,0a36.25,36.25,0,0,1-6,.94A31.94,31.94,0,0,1,225.64,713Z"/><path class="cls-4" d="M232.67,711.46a11.29,11.29,0,0,1-7.5-2.16C226.18,711.89,229.56,712.78,232.67,711.46Z"/><path class="cls-4" d="M228.75,708.89l-5.44-3.18A6.08,6.08,0,0,0,228.75,708.89Z"/><path class="cls-4" d="M404.88,712.45a19.32,19.32,0,0,1-5-9.7,32.24,32.24,0,0,1,2.87-20.42c2.41-5.13,5.87-9.27,11.07-11.76,3.4-1.62,6.79-3.25,10.25-4.74a15.42,15.42,0,0,1,9.08-1,37.5,37.5,0,0,1,20.68,10.75,16.4,16.4,0,0,1,4.62,8.85,51.2,51.2,0,0,1,.41,14.62,22.34,22.34,0,0,1-1.87,7.39c-2.57,5.14-5.94,9.59-11.22,12.58-6.83,3.87-13.83,5.32-21.64,3.57A33,33,0,0,1,404.88,712.45Zm25.54,8.71A21.5,21.5,0,0,0,440.68,719a29.18,29.18,0,0,0,13.25-11.5A18.28,18.28,0,0,0,456.6,698c0-3.68-.22-7.37-.33-11a14.55,14.55,0,0,0-4.93-10.52,36.05,36.05,0,0,0-18.26-9.29,13.65,13.65,0,0,0-8.2.83c-3.25,1.41-6.45,2.94-9.65,4.44a21.14,21.14,0,0,0-10.17,10.49,32.49,32.49,0,0,0-3.37,14.62c.09,8.54,4.29,14.58,11.53,18.6A38.92,38.92,0,0,0,425,720.61C426.83,720.8,428.62,721.08,430.42,721.16Z"/><path class="cls-4" d="M453.12,698.1c-2,2.19-3.64,4.11-5.38,6A31.15,31.15,0,0,1,435,711.89a39.13,39.13,0,0,1-6.74,1.84,22.65,22.65,0,0,1-14.84-2.54c-.73-.4-1.5-.75-2.24-1.12l-.36.54a6.55,6.55,0,0,0,1.34,1.25,27,27,0,0,0,4.56,1.9,32.69,32.69,0,0,0,26.85-4.14C447.84,706.91,450.81,703,453.12,698.1Z"/><path class="cls-4" d="M422.26,703.31a3.86,3.86,0,0,0,1.39,3.61c1.17,1,2.42.41,3.56-.17,2.11-1.06,3-2.84,2.28-4.73a3.87,3.87,0,0,0-1.7-1.91C425.9,699.21,422.72,701,422.26,703.31Z"/><path class="cls-4" d="M428.92,687.74c-.44,2.19.25,3.54,2,3.86,2.15.39,4.61-.84,5-2.51.42-1.85-1-4.37-2.62-4.71C431.28,684,429.39,685.45,428.92,687.74Z"/><path class="cls-4" d="M415.77,686c1.81.35,3.15-.39,3.5-1.92.45-2-.68-4.28-2.25-4.61-2-.42-4.14.73-4.46,2.44C412.19,683.91,413.46,685.54,415.77,686Z"/><path class="cls-4" d="M449.42,693.52c.26-.25.86-.82,1.47-1.38a3.64,3.64,0,0,0,.82-3.93,3.25,3.25,0,0,0-3.22-2,3.09,3.09,0,0,0-2.74,2.57C445.07,691.22,446.18,692.92,449.42,693.52Z"/><path class="cls-4" d="M429.5,675a2.39,2.39,0,0,0,2.13,2.86c2.18.31,3.91-.67,4.21-2.38a2.7,2.7,0,0,0-2.49-3.11A3.43,3.43,0,0,0,429.5,675Z"/><path class="cls-4" d="M406.4,697.55a4.94,4.94,0,0,0,1,5,2.61,2.61,0,0,0,2.13.67c.53-.11,1-1,1.28-1.61a4.38,4.38,0,0,0,.11-1.55C411.05,696.86,409.71,696,406.4,697.55Z"/><path class="cls-4" d="M453.68,690.78c-.37,1.92-.69,3.85-1.1,5.76-2.19,10.38-7,19-16.53,24.43a1.52,1.52,0,0,0-.31.31,7.21,7.21,0,0,0,5.57-1.11,23.43,23.43,0,0,0,8.72-8.65c1.58-2.9,3-5.9,4.3-8.91a9.2,9.2,0,0,0,.51-3.51A37.3,37.3,0,0,1,445,716,42,42,0,0,0,453.68,690.78Z"/><path class="cls-4" d="M450.57,695.5c-3.37,11.52-9.12,21.13-20.39,26.42a5.4,5.4,0,0,0,4.63-1.24,51.06,51.06,0,0,0,6.85-5.83c4.48-4.86,6.92-10.84,8.64-17.13a11.83,11.83,0,0,0,.27-1.56A4.85,4.85,0,0,0,450.57,695.5Z"/><path class="cls-4" d="M444.3,700.3a48.68,48.68,0,0,1-6.72,12.49,26.87,26.87,0,0,1-10.85,8.68,10.31,10.31,0,0,0,1.58-.14,14.72,14.72,0,0,0,6.95-4,36.94,36.94,0,0,0,9.27-16.21C444.57,701,444.46,700.86,444.3,700.3Z"/><path class="cls-4" d="M420.76,721.21a10.88,10.88,0,0,0,8-2.28,30.87,30.87,0,0,0,8.91-10.65,11.83,11.83,0,0,0,1-2.65C434.4,712.82,429.41,719,420.76,721.21Z"/><path class="cls-4" d="M418,719.65c4.93,1.55,11.08-3.14,14.6-9.65C428.77,714.77,424.6,719,418,719.65Z"/><path class="cls-4" d="M427.61,710.39c-3.46,4.19-7.09,7.33-12.63,7.88C419,719.83,425.4,715.8,427.61,710.39Z"/><path class="cls-4" d="M411.6,717.15c4.47-.1,8.46-1.22,11.08-5.3C419.69,715.13,415.56,716,411.6,717.15Z"/><path class="cls-4" d="M414.12,709.08c-2.55,2.46-5.58,2.11-8.67,1.47C408.58,712.84,412.13,712.21,414.12,709.08Z"/><path class="cls-4" d="M417.91,711.58a12.61,12.61,0,0,1-9,2.25C411.25,715.57,414.77,714.72,417.91,711.58Z"/><path class="cls-4" d="M409.72,708.66c-2.35,1-4.35-.5-6.7-1C405.61,709.93,407.71,710.23,409.72,708.66Z"/><path class="cls-4" d="M321.71,761.81a18.4,18.4,0,0,1-1.81-10.26,30.84,30.84,0,0,1,8.42-17.82c3.65-4,8-6.79,13.44-7.58,3.55-.52,7.11-1,10.69-1.42a14.92,14.92,0,0,1,8.56,1.7,35.93,35.93,0,0,1,15.81,15.68,15.63,15.63,0,0,1,1.7,9.39A48.54,48.54,0,0,1,374.74,765a21.35,21.35,0,0,1-3.79,6.21c-3.82,4-8.15,7.07-13.82,8.3-7.32,1.59-14.12.92-20.75-2.89A31.49,31.49,0,0,1,321.71,761.81ZM342.53,777a20.58,20.58,0,0,0,10,.94,27.86,27.86,0,0,0,15.35-6.74,17.4,17.4,0,0,0,5.12-7.86c1.06-3.35,1.89-6.78,2.84-10.17a13.92,13.92,0,0,0-1.51-11,34.59,34.59,0,0,0-14-13.66,13,13,0,0,0-7.72-1.56c-3.36.36-6.71.84-10.06,1.31A20.22,20.22,0,0,0,330.25,735,31,31,0,0,0,323,747.33c-2.34,7.81-.23,14.52,5.24,20.24a37,37,0,0,0,9.51,7.41C339.36,775.66,340.92,776.43,342.53,777Z"/><path class="cls-4" d="M369.79,762.42c-2.41,1.44-4.48,2.72-6.6,3.92a29.78,29.78,0,0,1-13.89,3.5,37.12,37.12,0,0,1-6.67-.23,21.69,21.69,0,0,1-12.82-6.53c-.55-.58-1.15-1.11-1.73-1.66l-.48.39a6.11,6.11,0,0,0,.88,1.52,26.59,26.59,0,0,0,3.61,3,31.21,31.21,0,0,0,25.68,3.84C362.48,769,366.29,766.26,369.79,762.42Z"/><path class="cls-4" d="M340.16,758.41a3.69,3.69,0,0,0,.24,3.69c.78,1.26,2.09,1.06,3.3.86,2.22-.37,3.57-1.74,3.42-3.67a3.66,3.66,0,0,0-1-2.23C344.65,755.71,341.23,756.46,340.16,758.41Z"/><path class="cls-4" d="M350.66,746.1c-1,1.87-.79,3.3.69,4.08,1.85,1,4.44.54,5.27-.87.91-1.57.35-4.27-1.06-5C353.88,743.34,351.74,744.14,350.66,746.1Z"/><path class="cls-4" d="M339.16,740.76c1.55.83,3,.54,3.74-.76,1-1.66.59-4.09-.75-4.84-1.73-1-4-.51-4.76,1C336.48,737.86,337.18,739.7,339.16,740.76Z"/><path class="cls-4" d="M367.72,757.19c.31-.15,1-.51,1.73-.84a3.48,3.48,0,0,0,1.86-3.35,3.08,3.08,0,0,0-2.36-2.75,2.94,2.94,0,0,0-3.23,1.56C364.4,753.86,364.93,755.72,367.72,757.19Z"/><path class="cls-4" d="M354.78,734.68a2.29,2.29,0,0,0,1.14,3.21c1.9.9,3.76.5,4.52-1a2.59,2.59,0,0,0-1.39-3.55A3.29,3.29,0,0,0,354.78,734.68Z"/><path class="cls-4" d="M327.32,748.66a4.72,4.72,0,0,0-.49,4.89,2.46,2.46,0,0,0,1.75,1.21c.51,0,1.17-.62,1.62-1.11a3.94,3.94,0,0,0,.54-1.38C331.77,749.34,330.78,748.22,327.32,748.66Z"/><path class="cls-4" d="M372.38,755.9c-.88,1.65-1.72,3.31-2.63,4.94-5,8.85-11.82,15.31-22,17.6a1.18,1.18,0,0,0-.37.19,6.81,6.81,0,0,0,5.39.57,22.4,22.4,0,0,0,10.42-5.42c2.25-2.19,4.38-4.53,6.45-6.9a9.13,9.13,0,0,0,1.46-3.06,35.58,35.58,0,0,1-13.75,12.59A40.08,40.08,0,0,0,372.38,755.9Z"/><path class="cls-4" d="M368.2,759.33c-6.34,9.55-14.31,16.69-26.1,18.31a5.16,5.16,0,0,0,4.58.18,48,48,0,0,0,7.9-3.38c5.47-3.15,9.39-7.91,12.75-13.17a13,13,0,0,0,.69-1.34A4.14,4.14,0,0,0,368.2,759.33Z"/><path class="cls-4" d="M361.12,761.92a46.19,46.19,0,0,1-9.68,9.49,25.65,25.65,0,0,1-12.36,4.84,9.79,9.79,0,0,0,1.48.32,14,14,0,0,0,7.47-1.66,35.41,35.41,0,0,0,13.07-12.16C361.16,762.65,361.11,762.48,361.12,761.92Z"/><path class="cls-4" d="M333.71,774.32a10.36,10.36,0,0,0,7.92.18,29.55,29.55,0,0,0,11.15-7.19,11.24,11.24,0,0,0,1.64-2.14C348.54,770.53,342.22,774.79,333.71,774.32Z"/><path class="cls-4" d="M331.63,772.11c4.06,2.81,11,.28,16.07-4.66C342.85,770.71,337.83,773.4,331.63,772.11Z"/><path class="cls-4" d="M343,766.39c-4.35,2.84-8.54,4.68-13.76,3.61C332.48,772.55,339.48,770.7,343,766.39Z"/><path class="cls-4" d="M326.51,768c4.1,1.18,8.06,1.29,11.61-1.69C334.46,768.46,330.46,768.06,326.51,768Z"/><path class="cls-4" d="M331.1,761.37c-3,1.51-5.69.34-8.33-1.12C325,763.23,328.39,763.66,331.1,761.37Z"/><path class="cls-4" d="M333.84,764.72a12,12,0,0,1-8.85-.51C326.63,766.47,330.08,766.7,333.84,764.72Z"/><path class="cls-4" d="M327.2,759.73c-2.42.23-3.83-1.69-5.84-2.77C323.09,759.72,324.93,760.6,327.2,759.73Z"/><path class="cls-3" d="M490.79,685.49l.6.52a17.68,17.68,0,0,1,2.34-1.84c3.64-2,8.35.4,8.33,4.32a6,6,0,0,0,1.86,4.39,7.35,7.35,0,0,1,.59,9.4c-1.36,2-1.3,2.58.49,4.22.25.23.51.44.76.66,3.15,2.82,3.42,6.21.77,9.47-.49.61-.88,1.31-1.36,2a16.75,16.75,0,0,1,1.65,1.82,17.63,17.63,0,0,1,2.32,4.07c1.13,3.74-.58,5.77-4.46,5.63a6.63,6.63,0,0,1-1-.08,3.39,3.39,0,0,0-3.13,1.06,8,8,0,0,1-6.67,2.13c-.82-.1-1.64-.12-2.3-.17-2.87,2.78-5.15,3.81-8.16,3.29a4.93,4.93,0,0,0-4.12,1.1,8.71,8.71,0,0,1-7.52,1.77,19.18,19.18,0,0,0-2.53-.28c-3,4.39-7.1,4.54-11.63,2.88-.69.62-1.26,1.21-1.9,1.71-1.61,1.26-3.38,2.27-5.49,1.95a6.09,6.09,0,0,0-4.2,1c-3.77,2.15-7.71,3.63-12.09,1.54-1.29-.62-2.32-.14-3.29.92-3,3.29-5.57,3.78-9.5,2a4.35,4.35,0,0,0-1-.17,11.11,11.11,0,0,0-1.21.89c-1.55,1.52-3.45,1.53-5.38,1.17a2.88,2.88,0,0,1-2.5-3.42c.06-.65.16-1.29.23-1.86-5.1-3.07-4.81-8.06-5-12.76a3.51,3.51,0,0,0-.39-.48,3.54,3.54,0,0,0-.77-.63c-3.58-1.94-4.53-5.41-3.73-8.78s.82-6.35-.88-9.64c-1.61-3.13-.45-4.63,3-5.48a5.54,5.54,0,0,0,.68-.35,9.38,9.38,0,0,1,6-4.56c2.57-.54,5.22-.65,8.14-1l.53-.71a9.81,9.81,0,0,1,9.6-4.1,15.58,15.58,0,0,1,2.68.56,3.08,3.08,0,0,0,3.19-.85,32.46,32.46,0,0,1,3.47-2.83,5.68,5.68,0,0,1,5.69-.72,20.83,20.83,0,0,0,2.19.62,5.49,5.49,0,0,0,.8-.65c3.72-4.5,7.31-5.53,12.82-3.71a16.59,16.59,0,0,0,1.86.39c.35-.5.6-.82.82-1.17,3.09-4.91,6.62-6.24,12.1-4.56.24.08.48.15.71.24a4,4,0,0,0,3.78-.46,53.26,53.26,0,0,1,4.88-2.49c2.28-1.1,4.34-.93,6.08,1.09A7,7,0,0,0,490.79,685.49Z"/><path class="cls-4" d="M509.89,748.1c1,5.41,1.91,10.84,3.39,16.12a122.48,122.48,0,0,0,19,38.59c2.82,3.91,5.47,8,7.93,12.12,5.45,9.23,6.31,19.21,3.92,29.47a39.15,39.15,0,0,1-17.67,25,78.35,78.35,0,0,1-26.34,10.39,88,88,0,0,0-31.39,13.09A86.65,86.65,0,0,1,447,903.53a35.81,35.81,0,0,1-23.07.15c-11.58-3.88-18.65-11.82-21-23.81a41,41,0,0,1-.07-14.66,25.89,25.89,0,0,1,5.63-12.86,70.88,70.88,0,0,1,10.71-10.07,99.49,99.49,0,0,0,7.88-6.9,20.23,20.23,0,0,0,6.18-18.21,79.29,79.29,0,0,0-3.08-13.09q-6.83-20.4-11.7-41.33c-.6-2.56-1.52-5-2.27-7.47-6.17-.53-6.91-1.85-7.61-6.46-3.76-3.55-4.53-8-4.39-12.79-5.33-4.36-6.34-8.36-3.9-15.6a17.84,17.84,0,0,1-1.73-3.47,14.3,14.3,0,0,1-.6-5.13c.31-2.53,2.31-3.47,4.64-3.57,3.5-5.5,8.69-6.72,14.73-6.11,3.81-5.46,9.14-6.1,15-4.35,3.75-3.41,7.31-6.78,12.56-4.35,5.38-5,7.12-5.44,15.53-4a14.27,14.27,0,0,1,6.85-5.83c3.25-1.16,6.22.29,9.06,1,2-1.07,3.89-2,5.72-3,3.18-1.68,6.2-1.83,8.95.87.1.1.31.08.35.09l5-1.85c1.83-4.38.94-8-2.92-10.67-2.88-2-5.94-3.68-9-5.43a15.69,15.69,0,0,1-8.39-14.6c.09-7.92,3.13-14.89,7.68-21.25a12.2,12.2,0,0,1,2.46-2.46c6-4.65,15.1-6.18,22.11,1.27,4,4.24,5.7,9.48,6.2,15.2.44,5-1.36,9.12-4.37,12.89-.57.72-1.14,1.43-1.66,2.19-1.19,1.71-2.35,3.43-3.5,5.16a10.47,10.47,0,0,0-1.72,5.9,27.16,27.16,0,0,1-1.54,9.57c-.41,1.06-.9,2.1-1.32,3.09,3.9,4,3.9,4,3.84,8.57a9.79,9.79,0,0,1,3.95,6.63,9.23,9.23,0,0,1-2,7.34c5.24,6.08,5.47,7.75,2.19,14.32A41.09,41.09,0,0,1,511,723c1.78,4.12.47,7.79-3.39,9.66C508.4,737.9,509,743,509.89,748.1Zm-7.33-15.85a11.55,11.55,0,0,1-10,3.1,12,12,0,0,1-10.75,3c-3.3,2.55-6.92,4.26-11.36,2.75-3.4,3.72-7.51,4.8-11.58,3.48a44.86,44.86,0,0,1-5.22,2.42,46.48,46.48,0,0,1-5.91,1c-6.05,3.49-7.83,3.78-14.41,2.17-2.22,1.27-4.17,2.49-6.2,3.54-2.2,1.13-4.39.42-6.54-.44l-2.06,1.4c.56,2.18,1.08,4.35,1.66,6.5,4,14.63,8,29.25,12.95,43.57A50.87,50.87,0,0,1,436,817.91c.48,7.1-1.44,13.4-6.41,18.54-2.65,2.74-5.64,5.16-8.52,7.67-2.45,2.14-5.09,4.06-7.41,6.32-3.8,3.7-6.83,8-8,13.28-1.78,8-1.52,16,2.34,23.37,5.66,10.79,15.11,15.49,27,15.73A37.38,37.38,0,0,0,449.07,900a91.14,91.14,0,0,0,18.63-9.58,88.47,88.47,0,0,1,30.92-12.94c4.78-1.05,9.49-2.51,14.16-4a51.73,51.73,0,0,0,18.38-10.86c6.07-5.39,9.22-12.52,10.79-20.37a43.85,43.85,0,0,0,.66-6,34.11,34.11,0,0,0-4.78-20.11c-2.92-4.84-6.14-9.51-9.34-14.18-11.91-17.35-19.53-36.29-21.33-57.4-.32-3.81-.75-7.61-1.13-11.41a2.13,2.13,0,0,0-.24-.46Zm-13-47.64c-1.74-2-3.8-2.19-6.08-1.09a53.26,53.26,0,0,0-4.88,2.49,4,4,0,0,1-3.78.46c-.23-.09-.47-.16-.71-.24-5.48-1.68-9-.35-12.1,4.56-.22.35-.47.67-.82,1.17a16.59,16.59,0,0,1-1.86-.39c-5.51-1.82-9.1-.79-12.82,3.71a5.49,5.49,0,0,1-.8.65,20.83,20.83,0,0,1-2.19-.62,5.68,5.68,0,0,0-5.69.72,32.46,32.46,0,0,0-3.47,2.83,3.08,3.08,0,0,1-3.19.85,15.58,15.58,0,0,0-2.68-.56,9.81,9.81,0,0,0-9.6,4.1l-.53.71c-2.92.33-5.57.44-8.14,1a9.38,9.38,0,0,0-6,4.56,5.54,5.54,0,0,1-.68.35c-3.46.85-4.62,2.35-3,5.48,1.7,3.29,1.7,6.14.88,9.64s.15,6.84,3.73,8.78a3.54,3.54,0,0,1,.77.63,3.51,3.51,0,0,1,.39.48c.15,4.7-.14,9.69,5,12.76-.07.57-.17,1.21-.23,1.86a2.88,2.88,0,0,0,2.5,3.42c1.93.36,3.83.35,5.38-1.17a11.11,11.11,0,0,1,1.21-.89,4.35,4.35,0,0,1,1,.17c3.93,1.77,6.51,1.28,9.5-2,1-1.06,2-1.54,3.29-.92,4.38,2.09,8.32.61,12.09-1.54a6.09,6.09,0,0,1,4.2-1c2.11.32,3.88-.69,5.49-1.95.64-.5,1.21-1.09,1.9-1.71,4.53,1.66,8.63,1.51,11.63-2.88a19.18,19.18,0,0,1,2.53.28,8.71,8.71,0,0,0,7.52-1.77,4.93,4.93,0,0,1,4.12-1.1c3,.52,5.29-.51,8.16-3.29.66,0,1.48.07,2.3.17a8,8,0,0,0,6.67-2.13,3.39,3.39,0,0,1,3.13-1.06,6.63,6.63,0,0,0,1,.08c3.88.14,5.59-1.89,4.46-5.63a17.63,17.63,0,0,0-2.32-4.07,16.75,16.75,0,0,0-1.65-1.82c.48-.73.87-1.43,1.36-2,2.65-3.26,2.38-6.65-.77-9.47-.25-.22-.51-.43-.76-.66-1.79-1.64-1.85-2.22-.49-4.22a7.35,7.35,0,0,0-.59-9.4,6,6,0,0,1-1.86-4.39c0-3.92-4.69-6.32-8.33-4.32a17.68,17.68,0,0,0-2.34,1.84l-.6-.52A7,7,0,0,1,489.6,684.61Zm7.16-28.86c2.79-3,5.61-5.9,7.53-9.57,2.38-4.54,3.34-9.21,1.64-14.19a15.66,15.66,0,0,0-1.05-2.53,7,7,0,0,0-9.17-3.17,15.68,15.68,0,0,0-7,5.82A29.53,29.53,0,0,0,485,659c1.35,4.14,4.36,6.48,8.76,8.19C491.79,662.27,493.8,658.89,496.76,655.75ZM501,669.22a12.73,12.73,0,0,1,2.31-7.74c1.68-2.38,3.37-4.75,5.12-7.07a19,19,0,0,0,.47-22.75,7.88,7.88,0,0,0-.9-.86,7.81,7.81,0,0,0,.09,1.27c2.21,7.37-.49,13.58-4.73,19.34-1.53,2.07-3.42,3.86-5.12,5.8a25.82,25.82,0,0,0-2,2.52,6.15,6.15,0,0,0-.54,6.4c.69,1.42,1.42,2.83,2,4.3.84,2.06,1.56,4.16,2.34,6.24l.35.18A75.47,75.47,0,0,0,501,669.22Zm-16.12-38.14a36.46,36.46,0,0,0-6.49,17.57,14.49,14.49,0,0,0,5.12,12.73c-4.62-13.6-2-25.08,7.57-35A11.31,11.31,0,0,0,484.86,631.08Z"/><path class="cls-4" d="M459.72,856c-.56-2.35-2.52-1.81-3.66-3-.84-1.32-.14-3-.13-4.61,0-1.24.22-2.48.2-3.72,0-.45-.39-.9-.8-1.76a13.1,13.1,0,0,0-1,1.82c-.3,1-.49,1.94-.73,2.91-1,3.91-1.06,4-5.16,4.14-1.4.06-1.4.06-2.71,1.43.91.38,1.68.77,2.49,1a2.25,2.25,0,0,1,1.79,2.81c-.32,2-.61,3.93-.9,5.9-.14.93-.25,1.87-.37,2.81l.57.25a6.31,6.31,0,0,0,1-1.36c.88-2.07,1.64-4.18,2.5-6.25,1-2.36,1.35-2.53,4-2.41C457.65,856,458.52,856,459.72,856Z"/><path class="cls-4" d="M486,759.11c-.5,1-1,2-1.48,3.06-.3.68-.5,1.41-.8,2.09a3.42,3.42,0,0,1-4.14,2.32c-1.21-.22-1.23-.1-2.48.95l4,2.09c1.35,3.34-1.3,6.22-.76,9.5,2.17-.47,2.09-2.39,2.81-3.61a38.21,38.21,0,0,0,1.93-4.66l4.69-.74c.11-1.41-1-1.73-1.84-2.12a2.87,2.87,0,0,1-1.63-3.5c.23-1.31.43-2.62.57-4a4.87,4.87,0,0,0-.25-1.33Z"/><path class="cls-4" d="M508.14,807.86c-1,1.89-1.72,3.39-2.21,4.38-1.95,1.35-4-.45-5.55,1.59.87.41,1.57.73,2.27,1.07l1.9,1c.36,2.7-2,5-.83,7.92,2.7-1.49,2.66-4.35,4.49-6.28l4.3.34c-.07-2.36-2.38-2.19-3.28-3.32C508.17,812.54,510.59,810.13,508.14,807.86Z"/><path class="cls-4" d="M481.31,838.75c2.15-1.37,2.23-3.69,3.45-5.68l3.3,2,.4-.37-2.16-2.81,3-2.08c-.06-.14-.12-.28-.19-.42-.53.06-1.07.08-1.6.18s-1.1.31-1.89.53c.14-1.26.26-2.32.38-3.38l-.39-.12-1.9,3.32-5.65-4.32-.45.49c1.2,2.1,3.35,3.4,5.05,5.34L479,834.2l.23.54,2.68-.34C481.74,835.88,481.53,837.31,481.31,838.75Z"/><path class="cls-4" d="M449.15,762.46l.25,4.27-4.16-.3c0,.16-.09.32-.13.49a13.73,13.73,0,0,0,1.36.74c.52.23,1.08.37,1.74.59-.47,1.87-3.08,2.46-2.71,5.14l4.35-3.47c.51,1.53,1,3,1.58,4.8,1.5-2.06.15-3.67.46-5.48l3.28.21c.06-.12.11-.24.16-.36l-3.13-1.51,3.41-3.87c-2.29-.26-3,1.82-4.69,2l-1.17-3.45Z"/><path class="cls-4" d="M458.35,791.38a4.14,4.14,0,0,1,3,5,4.35,4.35,0,0,1-5.09,3,4.1,4.1,0,0,1-2.68-5A4,4,0,0,1,458.35,791.38Zm-1.51,5.87a2,2,0,0,0,2.63-1.14,2.19,2.19,0,0,0-1.41-2.76,2.12,2.12,0,0,0-2.55,1.37A1.94,1.94,0,0,0,456.84,797.25Z"/><path class="cls-4" d="M430.62,871.87a3.23,3.23,0,0,1,2.13,4.17,3.35,3.35,0,0,1-4.12,2.29,3.46,3.46,0,0,1-2.1-4.25A3.13,3.13,0,0,1,430.62,871.87Zm-1,4.48a1.63,1.63,0,0,0,1.2-1,2,2,0,0,0-.67-1.6c-1-.58-1.69,0-2.15.9C428,875.75,428.5,876.49,429.62,876.35Z"/><path class="cls-4" d="M514.33,843.86a3.06,3.06,0,0,1,1.95,4,3.24,3.24,0,0,1-4.07,2.26,3.32,3.32,0,0,1-2.06-4.2A3.23,3.23,0,0,1,514.33,843.86Zm.11,3.44a2.26,2.26,0,0,0-.78-1.8c-.61-.5-1.85.14-1.88,1a7.78,7.78,0,0,0,.82,2.31C513.48,848.13,514.34,847.8,514.44,847.3Z"/><path class="cls-4" d="M438.23,804.14c.9-2.44-.25-6.52-2.09-7.87C435.11,798,436.07,801.78,438.23,804.14Z"/><path class="cls-4" d="M525.18,859.15c2.53.18,5.72-2.93,6.21-6.07A24.28,24.28,0,0,0,525.18,859.15Z"/><path class="cls-4" d="M427.13,765.74a10.06,10.06,0,0,0-1.2-7.62c-.5.83-.93,1.24-1,1.71A9.3,9.3,0,0,0,427.13,765.74Z"/><path class="cls-4" d="M425.44,848.35c2.34-.52,4.71-3.34,4.64-5.53A6.38,6.38,0,0,0,425.44,848.35Z"/><path class="cls-4" d="M412.69,862.83c-2.63,2.32-3.27,5.27-1.86,8.14.75-2.2,1.43-4,2-5.9A8.11,8.11,0,0,0,412.69,862.83Z"/><path class="cls-4" d="M439.4,897.43c2.26,1.43,6.11.52,8.13-1.92A23.43,23.43,0,0,0,439.4,897.43Z"/><path class="cls-4" d="M438.33,834a16.61,16.61,0,0,0-4.47,5.89c2.46,0,3.31-1.66,4.35-2.94C438.79,836.25,439.54,835.36,438.33,834Z"/><path class="cls-4" d="M415.18,857c2.8-1.19,4.68-3.18,4.87-5.06A5.22,5.22,0,0,0,415.18,857Z"/><path class="cls-4" d="M467.44,885.33c2.64-.15,4.47-1.7,6.43-3.5C471.66,881.15,468.44,882.86,467.44,885.33Z"/><path class="cls-4" d="M432.05,784.63a13.72,13.72,0,0,0,2.18,7.32C435.43,789.64,434.39,785.79,432.05,784.63Z"/><path class="cls-4" d="M413,883.27a17.62,17.62,0,0,0-.92-6.73,1.48,1.48,0,0,0-1.46,1.85C410.82,880.23,410.91,882.18,413,883.27Z"/><path class="cls-4" d="M520.46,797.29c-.05,3.19,1.69,5.79,3.91,5.94A11.54,11.54,0,0,0,520.46,797.29Z"/><path class="cls-4" d="M439.23,809.54a13.79,13.79,0,0,0,1.8,7C442.34,813.31,441.65,810.39,439.23,809.54Z"/><path class="cls-4" d="M533.78,818.7c.61,2.25.65,4.73,2.56,6.7A5.36,5.36,0,0,0,533.78,818.7Z"/><path class="cls-4" d="M479.42,879.48c2.59.34,5.84-1.44,6-3.16A7,7,0,0,0,479.42,879.48Z"/><path class="cls-4" d="M455.05,892.45c2.6-.17,4.55-1.51,6.4-3.42C459.51,888.36,456.06,890.13,455.05,892.45Z"/><path class="cls-4" d="M511.25,867.72l-6.18,1.95,0,.67c.44.19.88.56,1.3.55C508.32,870.82,510.62,869.54,511.25,867.72Z"/><path class="cls-4" d="M509.69,775.71c-.61,2.91.61,5.65,2.88,6.43A11.12,11.12,0,0,0,509.69,775.71Z"/><path class="cls-4" d="M441.71,821.9c-1.25,2.24-.91,4.32-.9,6.52C443.06,827.26,443.5,824.3,441.71,821.9Z"/><path class="cls-4" d="M537.22,836.34c1.83-1.94,1.76-5-.22-7.29C536.86,831.64,536.42,833.89,537.22,836.34Z"/><path class="cls-4" d="M518,792.88a14.68,14.68,0,0,0-3.22-6.19C514,789.22,515.66,792.37,518,792.88Z"/><path class="cls-4" d="M426.15,895.5a5.74,5.74,0,0,0,7.08,2.25A24.15,24.15,0,0,0,426.15,895.5Z"/><path class="cls-4" d="M417,889.27c.29,2.61,1.7,4.15,3.9,4.26C420,890.56,418.68,889.11,417,889.27Z"/><path class="cls-4" d="M515.56,866.28a5.45,5.45,0,0,0,5.15-3.53C518.44,862.79,515.8,864.6,515.56,866.28Z"/><path class="cls-4" d="M531.48,813.74c-.91-2.45-1.83-4.31-4.09-5.56C527.64,811.12,529.1,813.2,531.48,813.74Z"/><path class="cls-4" d="M430.14,777.79c1-2.43.69-4.44-.85-5.78C428.16,773.54,428.38,775.27,430.14,777.79Z"/><path class="cls-4" d="M503.13,752.45c-1.19,2.75-.62,4.8,1.36,5.58A8.12,8.12,0,0,0,503.13,752.45Z"/><path class="cls-4" d="M492.47,874.83c2.52.33,4.38-.58,5-2.47C495.25,872.07,493,873.17,492.47,874.83Z"/><path class="cls-4" d="M502.09,747a4.51,4.51,0,0,0-.46-5.6A4.62,4.62,0,0,0,502.09,747Z"/><path class="cls-4" d="M507.53,769.53a4.62,4.62,0,0,0-1.58-5.41C505.12,766.11,505.61,767.92,507.53,769.53Z"/><path class="cls-4" d="M534.21,847.62c2.45-1.06,3.18-2.84,2.49-5.78A15.46,15.46,0,0,0,534.21,847.62Z"/><path class="cls-4" d="M500.91,726.58c1.84-3,1.64-5.1-.5-6.61C499.76,722.19,500.11,724.13,500.91,726.58Z"/><path class="cls-4" d="M424.41,735.43c-.2,2.14,0,3.89,1.38,5.53C427,739.08,426.59,737.38,424.41,735.43Z"/><path class="cls-4" d="M482.76,694.77a4.46,4.46,0,0,0,.82,5.18C484.74,697.74,484.45,695.94,482.76,694.77Z"/><path class="cls-4" d="M497.63,722c1.32-2.33,1.24-3.39-.23-4.85C496.16,718.79,496.19,719.91,497.63,722Z"/><path class="cls-4" d="M456,723.75c-1.3,2.6-1.21,3.64.29,5.09C457.31,727.2,457.28,726.28,456,723.75Z"/><path class="cls-4" d="M478.89,698.88c-.95,2.09-.86,3.33.35,5C480.52,702.13,480.43,700.84,478.89,698.88Z"/><path class="cls-4" d="M415.46,710.34c-.22,1.83-.61,3.52,1,5C417.52,713.21,417.27,711.83,415.46,710.34Z"/><path class="cls-4" d="M413.43,719.64c1.16-1.6.75-3-.17-4.54C411.92,716.76,412,718,413.43,719.64Z"/><path class="cls-4" d="M410.4,735.51a3.24,3.24,0,0,0,.18,3.86C411.93,738.22,411.92,737.42,410.4,735.51Z"/><path class="cls-4" d="M449.07,901.39c3-1.28,6.16-2.33,9-3.89a72.66,72.66,0,0,0,6.92-4.88c.67-.47,1.42-.8,2.13-1.21a14.71,14.71,0,0,0,1.93-1.12c8.53-6.8,15.93-14.59,21.14-24.29a9.34,9.34,0,0,0,.41-.91,8,8,0,0,0,.23-.79c-2.72,3.71-5.27,7.44-8.07,11a47.44,47.44,0,0,1-9.74,9.5c3.14-5,6.83-9.75,8.71-15.52-5.84,9.49-12.21,18.49-21.65,24.84a78.33,78.33,0,0,0,14-21c-6.53,11-14.56,20.63-25.33,27.77Z"/><path class="cls-4" d="M526.64,834.52c-4.24,11.09-9.3,21.8-16.23,31.54-3.49,4.9-7.28,9.54-12.47,12.8a9.84,9.84,0,0,0-1.37,1.31c5.22-.18,8.79-3.11,12.12-6.5a77.47,77.47,0,0,0,16.72-25.18c3-7.4,5.76-14.89,6.94-22.86l-.93,3.36c-.31,1.12-.58,2.26-.95,3.36-3.56,10.49-7.44,20.84-14,29.91-2.29,3.16-4.85,6.12-7.33,9.14a8.67,8.67,0,0,1-2.05,1.74A116.72,116.72,0,0,0,526.64,834.52Z"/><path class="cls-4" d="M458,743.41c.06.3.12.61.25,1.31,2.19-1,4.22-1.86,6.24-2.77.61-.27,1.16-.81,1.78-.88,3.19-.39,5.43-2.41,7.64-4.42,5.56-5.08,9.25-11.41,12.14-18.28-3.83,6.12-7.5,12.35-13.26,17,1.91-3.21,4.47-6,5.69-9.67-5.33,7.71-11.63,14.27-20.56,17.76Z"/><path class="cls-4" d="M498.33,675.22c.25-3.48.06-6.61.81-9.5s2.45-5.49,3.72-8.19L500.45,660l-.29-.2a12.44,12.44,0,0,1,.95-1.54c1.6-1.92,3.25-3.79,4.85-5.71a19,19,0,0,0,4.07-8.16,5.6,5.6,0,0,0,.13-1,4.8,4.8,0,0,0-.28-.84c-.51,1.34-.89,2.43-1.34,3.48a28.38,28.38,0,0,1-5.62,8.16,57.28,57.28,0,0,0-5.19,6.35,14.61,14.61,0,0,0-2.07,4.75,8.46,8.46,0,0,0,.16,4.12A50.84,50.84,0,0,0,498.33,675.22Z"/><path class="cls-4" d="M507.85,876.56c.78-.55,1.58-1.09,2.34-1.66,7.4-5.6,12.57-13,16.75-21.1a135.62,135.62,0,0,0,8.1-20.35c.92-2.81,1.41-5.76,2.21-9.11-2.42,6.82-4.48,13.23-7,19.46A95.05,95.05,0,0,1,521,861.39c-3.76,5.6-8.59,10.2-13.56,14.7C507.58,876.25,507.72,876.4,507.85,876.56Z"/><path class="cls-4" d="M514.93,872.94a16.06,16.06,0,0,0,5.94-4.36,64,64,0,0,0,10.57-16,96.49,96.49,0,0,0,7.84-22.83,5.16,5.16,0,0,0-.09-2.8c-1.15,4.16-2.06,8.41-3.51,12.46a102.63,102.63,0,0,1-5.36,12.32,84.24,84.24,0,0,1-6.77,11.3C521,866.59,517.83,869.67,514.93,872.94Z"/><path class="cls-4" d="M473.24,862.09a128.16,128.16,0,0,1-12.68,22.69c-5.1,7.05-11.45,12.82-18.05,18.33C458.29,893.59,467.56,879.18,473.24,862.09Z"/><path class="cls-4" d="M501.05,705.78c-2.77,5.68-5.46,11.41-8.34,17a48,48,0,0,1-12,14.4,5.16,5.16,0,0,0,3.64-1.48,32.62,32.62,0,0,0,9.22-11.3c2.47-4.87,4.55-9.94,6.71-15a22.86,22.86,0,0,0,.92-3.71Z"/><path class="cls-4" d="M488,880.83c0,.25,0,.49,0,.74,9-3.17,25-25.28,27.27-40-.49,1.36-.93,2.73-1.46,4.07-5.23,13.36-12.86,25-24,34.23a11.18,11.18,0,0,1-1.9,1Z"/><path class="cls-4" d="M492.24,880.85c9.59-3.32,27.29-28.87,28.52-40.66C514.54,855.9,506,870.16,492.24,880.85Z"/><path class="cls-4" d="M456.2,742c.46-.66.88-1.36,1.38-2,2.78-3.49,5.59-7,8.38-10.44l-.4-.34c-2.21,2.57-4.4,5.16-6.65,7.7a31,31,0,0,1-7.94,6.63l5.41-8.07-.39-.26c-1.77,2.14-3.44,4.38-5.33,6.41s-3.91,3.74-6,5.65a2.81,2.81,0,0,0,3.25,0c1.92-1,3.79-2,5.68-3Z"/><path class="cls-4" d="M520.93,870.88c.75-.43,1.54-.83,2.25-1.32a27.61,27.61,0,0,0,9.13-11c2.49-5.06,4.74-10.24,6.77-15.49a33.52,33.52,0,0,0,1.49-8c-3.84,13.41-8.93,26.06-20,35.42Z"/><path class="cls-4" d="M471.42,740.92a30.82,30.82,0,0,0,3-1.06,24.6,24.6,0,0,0,7.88-6,72.05,72.05,0,0,0,11.16-17,1.19,1.19,0,0,0,0-1c-1.69,2.59-3.26,5.27-5.09,7.76a77.35,77.35,0,0,1-7.2,8.9c-2.31,2.34-5.2,4.1-7.84,6.11-.75.57-1.53,1.1-2.29,1.66Z"/><path class="cls-4" d="M488,880.88a20,20,0,0,1,1.73-2c6.33-5.83,12-12.16,15.9-20a64.42,64.42,0,0,0,3.5-8.22,98.33,98.33,0,0,1-25,32.37l4-2.21Z"/><path class="cls-4" d="M487.66,735.48a32.34,32.34,0,0,0,2.94-1.63c4.31-3,7-7.25,9.41-11.76a30.17,30.17,0,0,0,3.83-11.53c-3.56,9.46-8.35,18.05-16.67,24.25C487.33,735,487.5,735.25,487.66,735.48Z"/><path class="cls-4" d="M502.93,855a86.32,86.32,0,0,1-24.7,29.26C489.29,876.87,498,867.52,502.93,855Z"/><path class="cls-4" d="M429.31,903.13c7.4-.43,21.11-12.21,24.39-20.71A59.3,59.3,0,0,1,429.31,903.13Z"/><path class="cls-4" d="M435.15,903.07a6,6,0,0,0,1.62-.22c2.26-1,4.7-1.82,6.69-3.23A50.29,50.29,0,0,0,458,883.25c-6.26,8.11-13,15.65-23.07,19.24Z"/><path class="cls-4" d="M504.17,717.16c-1.35,3.16-2.35,6.67-4.25,9.59s-4.67,5.21-7,7.76C498.66,733.65,505,723.84,504.17,717.16Z"/><path class="cls-4" d="M424.79,903a28.94,28.94,0,0,0,4.33-1.67,52.08,52.08,0,0,0,16.58-14.82c.08-.11.05-.3.12-.78a61.51,61.51,0,0,1-21.4,16.59Z"/><path class="cls-4" d="M456.2,742l-2.56,2.24c0,1.19.78.75,1.32.53,1-.42,2-.92,3-1.39l-.08,0a23.75,23.75,0,0,1,2-1.76,39.46,39.46,0,0,0,9.42-9.44,7.62,7.62,0,0,0,.65-1,5.68,5.68,0,0,0,.24-1.07C466,735,461.77,739.31,456.2,742Z"/><path class="cls-4" d="M439.88,885.14a61,61,0,0,1-19.8,15.18C425.38,900.57,437.14,891.42,439.88,885.14Z"/><path class="cls-4" d="M480.15,645c-2.66,6.79-.52,14.76,5.19,18.82-.19-1.63-1.26-2.49-1.84-3.56s-1.29-2.15-1.78-3.3a20.84,20.84,0,0,1-1.22-3.78,23.11,23.11,0,0,1-.38-3.72C480.07,648.17,480.13,646.87,480.15,645Z"/><path class="cls-4" d="M432.64,888.36c-5.12,4.3-10.93,7.49-16.86,10.71.35.1.76.37,1.05.27A36.11,36.11,0,0,0,432.64,888.36Z"/><path class="cls-4" d="M414,896.09c4.36.13,10-3.62,13.74-8.86C423.46,890.71,419.12,894.05,414,896.09Z"/><path class="cls-4" d="M421.35,887.67l-11.3,6.16C412.71,894.6,417.38,892.15,421.35,887.67Z"/><path class="cls-4" d="M415.49,887.26l-6.87,2.89C410.43,891,413,890,415.49,887.26Z"/><path class="cls-4" d="M508,725.37c-1.36,1.88-2.79,3.84-4.21,5.81A6.64,6.64,0,0,0,508,725.37Z"/><path class="cls-4" d="M504.87,724.94l-4.31,6.29C502.74,730.44,504.08,728.53,504.87,724.94Z"/><path class="cls-4" d="M299.28,741.5c-2.62,2-5.23,4-7.87,6-.14.1-.57-.2-1.2-.45,1.93-3.53,5.7-4.88,8.14-7.89a8.68,8.68,0,0,0-1.55-.57c-1.8-.33-3.62-.56-5.42-.92a4.4,4.4,0,0,1-2-1.07c3.24-1.19,6.39.61,9.74-.06-1.09-2.07-2.12-4-3.36-6.35,2.79.45,3,3.18,4.93,4.12,1.11-3.12,1.06-6.4,2.43-9.38,1.11,1.52.72,3.17.51,4.79s-.47,3.42-.8,5.79l7.17-5.2.46.5c-1.7,2.42-4.23,4.11-6.55,6.51l9.34,1.76c.31,1.47-.43,1.69-1.38,1.59-1.74-.18-3.48-.43-5.21-.63-.66-.08-1.32-.13-2.26-.22a10.7,10.7,0,0,0,.65,1.65c1.15,1.83,2.38,3.61,3.51,5.46a16.58,16.58,0,0,1,1,2.34c-1.4.94-2,.07-2.48-.66C306,747,305,745.41,304,743.78a9.41,9.41,0,0,0-1.3-2.15c-1.78,3.24-.63,7-2.73,10.22-1.65-1.9-.92-3.64-.81-5.27s.41-3.25.62-4.87Z"/><path class="cls-4" d="M460,614.31c2.45,3.2,4.56,5.94,6.67,8.68l.6-.34a14.58,14.58,0,0,0-1.63-3c-.59-1-1.22-2-1.84-3s-1.33-2.07-2.14-3.33c3-.38,5.62.92,8.32.16-2.21-1.74-5.13-1.44-7.75-2.72l4.71-4.5c-2.44-.26-3.58,1.89-5.86,2.54.47-3,.9-5.77,1.42-9.06-2.22,1.26-1.75,3.07-2.26,4.41s-.82,2.82-1.3,4.54c-2.61-2.35-3.51-5.73-6.5-7.27,0,3.29,2.94,5.08,4,8.3-1.65-.26-3.06-.54-4.48-.71s-2.87-.93-4.31-.21c-.33,1.26.58,1.34,1.26,1.5,2,.48,4.06.9,6.09,1.35.55.13,1.1.3,1.94.52-2.26,2.78-5.58,4.08-7.36,7,3.46.13,4.87-3.41,7.88-4.39-.4,2.12-.88,4.1-1.12,6.1s-1.68,3.76.05,5.65C458.39,622.88,458.7,618.73,460,614.31Z"/><path class="cls-4" d="M152.35,727a3.89,3.89,0,1,0,4.55-3.1A3.9,3.9,0,0,0,152.35,727Z"/><path class="cls-4" d="M365.11,692.43a3.89,3.89,0,1,0,4.55-3.1A3.89,3.89,0,0,0,365.11,692.43Z"/><path class="cls-4" d="M285.52,707.63a2.92,2.92,0,1,0,3.41-2.33A2.93,2.93,0,0,0,285.52,707.63Z"/><path class="cls-4" d="M435.89,645.38a2.92,2.92,0,1,0,3.41-2.33A2.93,2.93,0,0,0,435.89,645.38Z"/><path class="cls-4" d="M309.42,124.13a32.18,32.18,0,0,1-13.59-6.51,22.22,22.22,0,0,1-7.11-10.44,28.28,28.28,0,0,1-.51-17c1.87-6.44,5.23-12.14,10.64-16.24,6.82-5.18,14.54-5.89,22.62-3.68a23.71,23.71,0,0,1,11.81,7.58A41.69,41.69,0,0,1,340,88.64a21.67,21.67,0,0,1-.28,18.69,31,31,0,0,1-15.56,15.41C319.76,124.8,315.06,125.11,309.42,124.13Zm8.86-52.82c-7.85-1.42-15.5.64-20.42,6-6.95,7.5-10.49,16.18-8.38,26.62a20.69,20.69,0,0,0,6.83,11.94,30.72,30.72,0,0,0,10.1,5.55,22.48,22.48,0,0,0,16.87-.3,28.92,28.92,0,0,0,13.4-11.74c4.21-6.94,4.82-14.11,1.11-21.5a42,42,0,0,0-5.93-9A22.9,22.9,0,0,0,318.28,71.31Z"/><path class="cls-4" d="M318.21,95a5.29,5.29,0,0,1-2.64,3.16,2.88,2.88,0,0,1-3.41-.15,3.05,3.05,0,0,1-1.23-3.4,9.29,9.29,0,0,1,2-3.17,2.88,2.88,0,0,1,3.52-.67A4.32,4.32,0,0,1,318.21,95Z"/><path class="cls-4" d="M325.15,116.36a17.05,17.05,0,0,1-11.43,3.26c-8.4-.44-16.9-7.07-19.45-15.32.33.52.69,1,1,1.55a27,27,0,0,0,10.39,10.35c5.72,3.07,11.6,3.52,17.57.67l1.3-.58A3.08,3.08,0,0,1,325.15,116.36Z"/><path class="cls-4" d="M332.11,100c-2.12-.43-3.06-1.78-2.62-3.77a3.61,3.61,0,0,1,4-2.6,3.71,3.71,0,0,1,2.52,4.1A3.19,3.19,0,0,1,332.11,100Z"/><path class="cls-4" d="M300.66,96.42a2.86,2.86,0,0,1-3.36,2.18,3.45,3.45,0,0,1-2.4-3,3.26,3.26,0,0,1,1.47-3.5,2.32,2.32,0,0,1,2.66.12A5,5,0,0,1,300.66,96.42Z"/><path class="cls-4" d="M316.13,114c-2.17-.38-3-1.3-2.77-3A3.83,3.83,0,0,1,317.5,108a2.94,2.94,0,0,1,2.24,3.7A2.82,2.82,0,0,1,316.13,114Z"/><path class="cls-4" d="M313.7,80.85a23.28,23.28,0,0,1-2.49-1.21,1.63,1.63,0,0,1-.49-2.46,4,4,0,0,1,5.85-.66c1.15,1.15,1.41,2.22.81,3.27S315.62,81.23,313.7,80.85Z"/><path class="cls-4" d="M308.94,121.83c.06.32.12.64.25,1.36a41.67,41.67,0,0,1-3.52-2.28,28.82,28.82,0,0,1-10.19-14.58A50.24,50.24,0,0,1,293.19,93a9.88,9.88,0,0,1,1.06-4.82c-1.13,8,1,15.41,4.44,22.46,2.31,4.71,6.12,8.21,10.3,11.28Z"/><path class="cls-4" d="M309,121.89c-.8-1-1.57-2-2.4-3a37.94,37.94,0,0,1-9.22-23.34,7.76,7.76,0,0,1,.23-2.26c.92,12.73,6.48,23,16.23,31.13-2.1-.11-3.25-1.81-4.89-2.61Z"/><path class="cls-4" d="M291.07,92.81c-.64,11.36,3.81,20.67,12.85,28.25C295.85,118.54,288,102.47,291.07,92.81Z"/><path class="cls-4" d="M318.6,123.56a9.57,9.57,0,0,1-5.51-2,19.76,19.76,0,0,1-5.25-5.34,36.22,36.22,0,0,1-4.47-8.87,8.22,8.22,0,0,1-.42-2.12C306.1,113.1,310.35,120,318.6,123.56Z"/><path class="cls-4" d="M319.39,122.62c-6-2.12-8.84-7.18-11.52-12.37C310.94,115.1,314.47,119.52,319.39,122.62Z"/><path class="cls-4" d="M317.56,112.3c3,3.35,6.46,5.91,11.19,6.46C325.64,120.4,319.9,117.11,317.56,112.3Z"/><path class="cls-4" d="M324.65,121.25c-4.27,0-9.39-3.71-10.69-7.64A21.36,21.36,0,0,0,324.65,121.25Z"/><path class="cls-4" d="M332.55,116.13c-2.65,1.77-7.77,0-10.76-4a35.14,35.14,0,0,0,5.25,3A30.73,30.73,0,0,0,332.55,116.13Z"/><path class="cls-4" d="M326.5,112.25a11.27,11.27,0,0,0,7.78.63C332.41,115,328.94,114.59,326.5,112.25Z"/><path class="cls-4" d="M331.08,111.23l6.21-1A6.06,6.06,0,0,1,331.08,111.23Z"/><path class="cls-4" d="M170.27,123.14c-7.92-1.12-14-5-19-11-3.89-4.66-5.46-10-6.06-15.74a22.49,22.49,0,0,1,.87-7.57,50.65,50.65,0,0,1,5.55-13.53,16.29,16.29,0,0,1,7.44-6.65,37.51,37.51,0,0,1,23.15-2.75A15.52,15.52,0,0,1,190.4,70c2.7,2.61,5.3,5.33,7.9,8,4,4.17,5.77,9.26,6.21,14.91A32.31,32.31,0,0,1,200,113.12a19.38,19.38,0,0,1-8.1,7.3A33,33,0,0,1,170.27,123.14Zm-.14-2.21a38.79,38.79,0,0,0,12.63,0c8.2-1.2,14.26-5.37,17.36-13.32a32.64,32.64,0,0,0,2-14.87,21.21,21.21,0,0,0-5.81-13.41c-2.46-2.54-4.91-5.09-7.45-7.56a13.68,13.68,0,0,0-7.38-3.67,36.1,36.1,0,0,0-20.37,2.23,14.55,14.55,0,0,0-8.33,8.11c-1.4,3.4-2.92,6.77-4.21,10.22a18.36,18.36,0,0,0-.84,9.78,29.2,29.2,0,0,0,8.33,15.44,21.52,21.52,0,0,0,8.84,5.66C166.62,120.1,168.39,120.48,170.13,120.93Z"/><path class="cls-4" d="M151.81,90c1.07,2.75,2,5.13,2.93,7.49a31.18,31.18,0,0,0,9.2,11.83,37.81,37.81,0,0,0,5.66,4.11,22.67,22.67,0,0,0,14.78,2.86c.83-.11,1.66-.17,2.49-.25l.15.63a6.27,6.27,0,0,1-1.7.69,27.25,27.25,0,0,1-4.94.17,32.65,32.65,0,0,1-23.65-13.36C153.64,100.05,152.23,95.37,151.81,90Z"/><path class="cls-4" d="M178.85,105.73a3.9,3.9,0,0,1-2.58,2.89c-1.46.53-2.41-.47-3.27-1.42-1.6-1.74-1.83-3.73-.46-5.23a3.78,3.78,0,0,1,2.26-1.18C176.88,100.61,179.22,103.43,178.85,105.73Z"/><path class="cls-4" d="M178.11,88.81c-.35,2.2-1.48,3.23-3.2,2.92-2.14-.39-4-2.42-3.78-4.11.25-1.88,2.46-3.75,4.11-3.48C177.23,84.46,178.48,86.5,178.11,88.81Z"/><path class="cls-4" d="M191,91.81c-1.82-.31-2.81-1.47-2.6-3,.27-2,2.15-3.76,3.73-3.52,2.06.32,3.62,2.15,3.31,3.86C195.12,91.14,193.35,92.21,191,91.81Z"/><path class="cls-4" d="M156.89,87c-.15-.32-.51-1.07-.88-1.81a3.63,3.63,0,0,1,.62-4,3.24,3.24,0,0,1,3.72-.75A3.1,3.1,0,0,1,162,83.82C161.78,86.36,160.14,87.56,156.89,87Z"/><path class="cls-4" d="M182.06,76.73a2.4,2.4,0,0,1-3,1.92c-2.14-.49-3.42-2-3.09-3.72a2.7,2.7,0,0,1,3.43-2A3.44,3.44,0,0,1,182.06,76.73Z"/><path class="cls-4" d="M195.72,106A5,5,0,0,1,193,110.3a2.6,2.6,0,0,1-2.23-.12c-.46-.3-.57-1.28-.62-2a4.14,4.14,0,0,1,.44-1.49C191.61,103.65,193.15,103.36,195.72,106Z"/><path class="cls-4" d="M153.88,82.9c-.34,1.93-.72,3.85-1,5.78-1.61,10.49-.11,20.24,6.83,28.7a1.47,1.47,0,0,1,.18.4,7.22,7.22,0,0,1-4.82-3A23.39,23.39,0,0,1,150,103.59c-.46-3.26-.71-6.56-.88-9.85a9.24,9.24,0,0,1,.76-3.46,37.18,37.18,0,0,0,3.24,19.24A41.9,41.9,0,0,1,153.88,82.9Z"/><path class="cls-4" d="M155.12,88.42c-.92,12,1.06,23,9.74,31.92a5.4,5.4,0,0,1-3.89-2.79,51.39,51.39,0,0,1-4.35-7.88c-2.48-6.12-2.65-12.58-2-19.08a13.64,13.64,0,0,1,.29-1.55A5.27,5.27,0,0,1,155.12,88.42Z"/><path class="cls-4" d="M159.29,95.12a47.9,47.9,0,0,0,1.88,14.07,26.84,26.84,0,0,0,7.07,12,10.34,10.34,0,0,1-1.42-.69,14.59,14.59,0,0,1-5.09-6.18,37,37,0,0,1-2.95-18.45C158.78,95.7,158.94,95.59,159.29,95.12Z"/><path class="cls-4" d="M173.92,123a10.83,10.83,0,0,1-6.65-5A30.81,30.81,0,0,1,162.7,105a11.67,11.67,0,0,1,0-2.83C164.13,110.33,166.6,117.92,173.92,123Z"/><path class="cls-4" d="M177.06,122.52c-5.16-.29-9.26-6.85-10.25-14.19C168.7,114.14,171.11,119.59,177.06,122.52Z"/><path class="cls-4" d="M171.34,110.46c1.76,5.14,4,9.37,9,11.84C176.08,122.34,171.49,116.3,171.34,110.46Z"/><path class="cls-4" d="M183.93,122.44c-4.15-1.67-7.49-4.13-8.49-8.87C177.07,117.69,180.64,119.93,183.93,122.44Z"/><path class="cls-4" d="M184.42,114c1.52,3.2,4.47,4,7.59,4.44C188.27,119.48,185.18,117.64,184.42,114Z"/><path class="cls-4" d="M180,115a12.57,12.57,0,0,0,7.63,5.29C184.82,121.09,181.82,119.05,180,115Z"/><path class="cls-4" d="M188.68,115.16c1.86,1.75,4.26,1.08,6.61,1.48C192.09,117.8,190,117.35,188.68,115.16Z"/><path class="cls-4" d="M260.27,75.28c-7.55,1.23-14.15-.55-20.44-4.62C235,67.5,232,63.07,229.84,58a21.26,21.26,0,0,1-1.36-7.15A48.69,48.69,0,0,1,229.7,37a15.68,15.68,0,0,1,4.91-8.19,35.87,35.87,0,0,1,20.33-9.08,14.86,14.86,0,0,1,8.61,1.44c3.21,1.62,6.36,3.36,9.5,5.1,4.82,2.67,7.89,6.81,9.89,11.84a30.84,30.84,0,0,1,1.58,19.65,18.59,18.59,0,0,1-5.31,9A31.54,31.54,0,0,1,260.27,75.28Zm-.76-2A37.06,37.06,0,0,0,271,69.73c7.14-3.42,11.49-8.94,12.06-17.08a31.07,31.07,0,0,0-2.38-14.13,20.25,20.25,0,0,0-9.11-10.58c-3-1.62-5.93-3.26-9-4.78a13,13,0,0,0-7.77-1.27,34.58,34.58,0,0,0-17.95,7.82,13.92,13.92,0,0,0-5.3,9.76c-.31,3.51-.74,7-.93,10.52a17.37,17.37,0,0,0,2,9.16,27.86,27.86,0,0,0,12,11.73,20.57,20.57,0,0,0,9.66,2.65C256.07,73.55,257.79,73.39,259.51,73.31Z"/><path class="cls-4" d="M234,50.25c1.76,2.2,3.24,4.13,4.8,6a29.75,29.75,0,0,0,11.76,8.19,36.75,36.75,0,0,0,6.32,2.14A21.73,21.73,0,0,0,271.18,65c.72-.34,1.47-.63,2.2-.94l.31.53a6.38,6.38,0,0,1-1.35,1.12,25.91,25.91,0,0,1-4.46,1.55,31.17,31.17,0,0,1-25.37-5.48C238.54,58.94,235.93,55.07,234,50.25Z"/><path class="cls-4" d="M263.15,57a3.74,3.74,0,0,1-1.53,3.38c-1.18.89-2.33.25-3.39-.37-2-1.13-2.73-2.88-1.9-4.64a3.59,3.59,0,0,1,1.73-1.73C259.9,52.85,262.83,54.76,263.15,57Z"/><path class="cls-4" d="M257.68,41.74c.3,2.11-.44,3.36-2.09,3.57-2.07.25-4.35-1.07-4.62-2.68-.31-1.78,1.18-4.11,2.76-4.34C255.64,38,257.36,39.53,257.68,41.74Z"/><path class="cls-4" d="M270.32,40.81c-1.74.23-3-.55-3.23-2-.32-1.9.89-4,2.41-4.27,2-.29,3.91.93,4.11,2.58C273.85,39,272.54,40.52,270.32,40.81Z"/><path class="cls-4" d="M237.8,46.09c-.24-.25-.78-.84-1.33-1.4a3.47,3.47,0,0,1-.55-3.79,3.09,3.09,0,0,1,3.18-1.74,3,3,0,0,1,2.47,2.6C242.08,44.15,240.93,45.7,237.8,46.09Z"/><path class="cls-4" d="M257.85,29.6a2.28,2.28,0,0,1-2.2,2.6c-2.1.17-3.69-.86-3.88-2.51a2.59,2.59,0,0,1,2.55-2.83A3.29,3.29,0,0,1,257.85,29.6Z"/><path class="cls-4" d="M278.6,52.38a4.69,4.69,0,0,1-1.27,4.74,2.44,2.44,0,0,1-2.06.52c-.5-.13-.88-1-1.13-1.61a4.07,4.07,0,0,1,0-1.48C274.2,51.45,275.52,50.75,278.6,52.38Z"/><path class="cls-4" d="M233.89,43.23c.24,1.85.44,3.71.72,5.56,1.51,10,5.64,18.5,14.38,24.23a1.74,1.74,0,0,1,.28.32A6.86,6.86,0,0,1,244,72a22.45,22.45,0,0,1-7.83-8.75c-1.34-2.85-2.5-5.79-3.6-8.74a9,9,0,0,1-.28-3.37,35.6,35.6,0,0,0,8.41,16.63A40.11,40.11,0,0,1,233.89,43.23Z"/><path class="cls-4" d="M236.59,47.91c2.56,11.18,7.49,20.68,17.95,26.36a5.16,5.16,0,0,1-4.35-1.45,48.51,48.51,0,0,1-6.2-5.95C240,62,238,56.15,236.72,50a12.52,12.52,0,0,1-.17-1.5A3.39,3.39,0,0,1,236.59,47.91Z"/><path class="cls-4" d="M242.3,52.84a45.62,45.62,0,0,0,5.7,12.3A25.68,25.68,0,0,0,257.85,74a9.07,9.07,0,0,1-1.49-.22A14.09,14.09,0,0,1,250,69.62a35.47,35.47,0,0,1-7.93-16C242,53.51,242.11,53.37,242.3,52.84Z"/><path class="cls-4" d="M263.56,74.13a10.41,10.41,0,0,1-7.48-2.64,29.54,29.54,0,0,1-7.89-10.65,11.91,11.91,0,0,1-.77-2.59C251,65.35,255.43,71.57,263.56,74.13Z"/><path class="cls-4" d="M266.28,72.8c-4.79,1.19-10.39-3.63-13.38-10C256.28,67.52,260,71.81,266.28,72.8Z"/><path class="cls-4" d="M257.64,63.42c3.06,4.19,6.34,7.39,11.6,8.23C265.34,72.91,259.44,68.7,257.64,63.42Z"/><path class="cls-4" d="M272.53,70.77c-4.26-.35-8-1.64-10.27-5.68C264.93,68.38,268.81,69.42,272.53,70.77Z"/><path class="cls-4" d="M270.58,62.93c2.3,2.49,5.2,2.33,8.18,1.9C275.65,66.84,272.3,66,270.58,62.93Z"/><path class="cls-4" d="M266.83,65.1a12,12,0,0,0,8.46,2.66C273,69.28,269.64,68.28,266.83,65.1Z"/><path class="cls-4" d="M274.8,62.78c2.18,1.07,4.18-.23,6.44-.53C278.65,64.22,276.62,64.4,274.8,62.78Z"/><path class="cls-3" d="M119.53,71.31l-.77.21a17.61,17.61,0,0,0-1.28-2.7c-2.37-3.4-7.66-3.35-9.38.18a6,6,0,0,1-3.62,3.11,7.35,7.35,0,0,0-4.71,8.15c.34,2.4,0,2.89-2.31,3.57l-1,.25c-4.07,1.13-5.82,4-4.9,8.14a23.9,23.9,0,0,1,.32,2.43,16,16,0,0,0-2.29.91,17.53,17.53,0,0,0-3.89,2.61c-2.67,2.85-2,5.43,1.5,7a6.26,6.26,0,0,0,.93.38,3.35,3.35,0,0,1,2.33,2.34,8.07,8.07,0,0,0,5,4.87c.77.27,1.51.61,2.13.86,1.33,3.77,2.92,5.7,5.85,6.57a5,5,0,0,1,3.2,2.82,8.71,8.71,0,0,0,6,4.93,19.42,19.42,0,0,1,2.39.87c.75,5.27,4.35,7.22,9.14,7.74.34.87.6,1.65,1,2.38.88,1.84,2,3.54,4,4.19a6.12,6.12,0,0,1,3.32,2.75c2.42,3.6,5.3,6.68,10.15,6.75,1.43,0,2.15.91,2.54,2.29,1.22,4.27,3.31,5.86,7.62,6a3.81,3.81,0,0,1,1,.29,9.83,9.83,0,0,1,.68,1.33c.72,2.05,2.42,2.91,4.3,3.44a2.88,2.88,0,0,0,3.77-1.95c.23-.61.43-1.23.61-1.77,5.94-.48,7.9-5.09,10.12-9.23a4.08,4.08,0,0,1,.56-.26,4.24,4.24,0,0,1,1-.22c4.07-.15,6.46-2.83,7.25-6.2s2.08-6.06,5.06-8.25,2.47-3.95-.26-6.25a4.05,4.05,0,0,1-.45-.61,9.41,9.41,0,0,0-3.36-6.76c-2.06-1.62-4.4-2.9-6.86-4.49,0-.07-.09-.47-.16-.88a9.83,9.83,0,0,0-6.78-7.94,16.88,16.88,0,0,0-2.65-.68,3.07,3.07,0,0,1-2.47-2.18,33.36,33.36,0,0,0-1.86-4.08,5.69,5.69,0,0,0-4.77-3.17,17.77,17.77,0,0,1-2.25-.42,7.53,7.53,0,0,1-.43-.93c-1.33-5.69-4.08-8.21-9.83-9a17.17,17.17,0,0,1-1.84-.48c-.1-.6-.18-1-.22-1.41-.59-5.77-3.15-8.53-8.81-9.46-.25,0-.5-.08-.74-.1a4,4,0,0,1-3.18-2.09,51.66,51.66,0,0,0-3.27-4.4c-1.56-2-3.47-2.77-5.94-1.73A6.2,6.2,0,0,1,119.53,71.31Z"/><path class="cls-4" d="M83.48,106.08c-2.63-3.39-2.18-7.27,1.25-10.16a38.61,38.61,0,0,1,4.41-2.83c0-7.34.93-8.74,8.32-11.85A9.25,9.25,0,0,1,99,73.77a9.75,9.75,0,0,1,6.48-4.18c2-4.13,2-4.13,7.24-6,.06-1.07.09-2.22.2-3.36A26.92,26.92,0,0,1,115.74,51a10.41,10.41,0,0,0,1.07-6c-.26-2.07-.53-4.13-.84-6.18-.13-.91-.33-1.81-.52-2.7-1-4.72-.78-9.24,1.82-13.49,3-4.91,6.84-8.84,12.3-10.87,9.59-3.56,17.08,1.86,20.37,8.69a12.26,12.26,0,0,1,1.12,3.3c1.25,7.72.87,15.31-2.56,22.45-2.78,5.79-7.52,8.93-14,9.35-3.48.22-7,.4-10.44.88-4.64.65-7,3.52-7.36,8.27l3.66,3.86s.22.13.36.08c3.66-1.19,6.3.29,8.4,3.2,1.21,1.69,2.44,3.36,3.79,5.23,2.86.63,6.17.65,8.56,3.13A14.23,14.23,0,0,1,145,88.42c8.19,2.4,9.56,3.56,12.16,10.44,5.78.16,7.47,4.75,9.32,9.47,6,1,10.49,4,11.48,10.56,5.68,2.13,9.79,5.53,10.49,12,2,1.12,3.41,2.85,2.56,5.25a14.39,14.39,0,0,1-2.81,4.33,18.39,18.39,0,0,1-3.09,2.35c-1,7.56-3.71,10.69-10.43,12.24-2,4.31-4.67,8-9.61,9.5-2.68,3.82-3.92,4.67-9.69,2.41-1.74,1.84-3.68,3.65-5.35,5.68q-13.66,16.61-28.84,31.84a77.43,77.43,0,0,0-8.57,10.36,20.18,20.18,0,0,0-2.56,19,99.62,99.62,0,0,0,4,9.69,70.25,70.25,0,0,1,5.13,13.78,25.89,25.89,0,0,1-.67,14,41.17,41.17,0,0,1-6.57,13.1c-7.47,9.68-17.33,13.66-29.43,12a36,36,0,0,1-20.61-10.38A86.84,86.84,0,0,1,47.19,267a88.16,88.16,0,0,0-22.31-25.67,78.24,78.24,0,0,1-19-21A39.14,39.14,0,0,1,1.18,190c2.42-10.24,7.62-18.81,16.6-24.66q6.07-3.94,12.49-7.34a122.25,122.25,0,0,0,34.14-26.14c3.66-4.07,6.93-8.52,10.19-12.94C77.66,114.78,80.47,110.45,83.48,106.08Zm1.64.86a3.45,3.45,0,0,0-.41.3c-2,3.24-4.1,6.46-6.09,9.73-11,18.11-26.22,31.69-44.61,41.95-4.94,2.76-9.89,5.52-14.66,8.55A34.09,34.09,0,0,0,6.13,183.36a45.67,45.67,0,0,0-2,5.63C2,196.72,1.66,204.5,4.7,212a51.74,51.74,0,0,0,11.65,17.89c3.5,3.42,7.08,6.82,10.9,9.89a88.65,88.65,0,0,1,22,25.32A91.54,91.54,0,0,0,61.63,282,37.35,37.35,0,0,0,73,290.82c10.77,5.08,21.32,5.07,31.19-2.09,6.74-4.89,10.5-11.9,12.47-19.89,1.31-5.28.49-10.45-1.28-15.46-1.07-3-2.58-5.95-3.82-8.95-1.47-3.53-3.07-7-4.23-10.66-2.17-6.81-1.09-13.32,2.49-19.46a50.43,50.43,0,0,1,8.38-10.52c10.83-10.62,20.91-21.94,30.95-33.28,1.48-1.68,2.91-3.38,4.38-5.09-.46-.83-.82-1.47-1.22-2.17-2.31-.18-4.59-.53-6.06-2.51s-2.56-3.8-4-5.93c-6.62-1.48-8.08-2.53-11.95-8.34a47.91,47.91,0,0,1-4.84-3.54,46,46,0,0,1-3.6-4.48c-4.24-.64-7.44-3.43-8.83-8.27-4.65-.62-7.13-3.76-8.95-7.51a12,12,0,0,1-8.3-7.46A11.58,11.58,0,0,1,88.21,108Zm34.41-35.63-.77.21a17.61,17.61,0,0,0-1.28-2.7c-2.37-3.4-7.66-3.35-9.38.18a6,6,0,0,1-3.62,3.11,7.35,7.35,0,0,0-4.71,8.15c.34,2.4,0,2.89-2.31,3.57l-1,.25c-4.07,1.13-5.82,4-4.9,8.14a23.9,23.9,0,0,1,.32,2.43,16,16,0,0,0-2.29.91,17.53,17.53,0,0,0-3.89,2.61c-2.67,2.85-2,5.43,1.5,7a6.26,6.26,0,0,0,.93.38,3.35,3.35,0,0,1,2.33,2.34,8.07,8.07,0,0,0,5,4.87c.77.27,1.51.61,2.13.86,1.33,3.77,2.92,5.7,5.85,6.57a5,5,0,0,1,3.2,2.82,8.71,8.71,0,0,0,6,4.93,19.42,19.42,0,0,1,2.39.87c.75,5.27,4.35,7.22,9.14,7.74.34.87.6,1.65,1,2.38.88,1.84,2,3.54,4,4.19a6.12,6.12,0,0,1,3.32,2.75c2.42,3.6,5.3,6.68,10.15,6.75,1.43,0,2.15.91,2.54,2.29,1.22,4.27,3.31,5.86,7.62,6a3.81,3.81,0,0,1,1,.29,9.83,9.83,0,0,1,.68,1.33c.72,2.05,2.42,2.91,4.3,3.44a2.88,2.88,0,0,0,3.77-1.95c.23-.61.43-1.23.61-1.77,5.94-.48,7.9-5.09,10.12-9.23a4.08,4.08,0,0,1,.56-.26,4.24,4.24,0,0,1,1-.22c4.07-.15,6.46-2.83,7.25-6.2s2.08-6.06,5.06-8.25,2.47-3.95-.26-6.25a4.05,4.05,0,0,1-.45-.61,9.41,9.41,0,0,0-3.36-6.76c-2.06-1.62-4.4-2.9-6.86-4.49,0-.07-.09-.47-.16-.88a9.83,9.83,0,0,0-6.78-7.94,16.88,16.88,0,0,0-2.65-.68,3.07,3.07,0,0,1-2.47-2.18,33.36,33.36,0,0,0-1.86-4.08,5.69,5.69,0,0,0-4.77-3.17,17.77,17.77,0,0,1-2.25-.42,7.53,7.53,0,0,1-.43-.93c-1.33-5.69-4.08-8.21-9.83-9a17.17,17.17,0,0,1-1.84-.48c-.1-.6-.18-1-.22-1.41-.59-5.77-3.15-8.53-8.81-9.46-.25,0-.5-.08-.74-.1a4,4,0,0,1-3.18-2.09,51.66,51.66,0,0,0-3.27-4.4c-1.56-2-3.47-2.77-5.94-1.73A6.2,6.2,0,0,1,119.53,71.31ZM125,53.63c4.7.42,8.43-.34,11.49-3.45a29.51,29.51,0,0,0,8.6-25.75,15.7,15.7,0,0,0-3.7-8.34,7,7,0,0,0-9.62-1.24,15.35,15.35,0,0,0-2.07,1.8C126,20.36,124.78,25,124.89,30.1c.09,4.14,1.31,8,2.5,11.92C128.65,46.15,129,50.07,125,53.63Zm-10.22,5.71h.4c1.61-1.52,3.2-3.09,4.86-4.56,1.18-1.05,2.46-2,3.71-3a6.13,6.13,0,0,0,2.36-6,26.2,26.2,0,0,0-.7-3.16c-.67-2.49-1.57-4.94-2-7.47-1.25-7-.91-13.81,4.35-19.44a7.23,7.23,0,0,0,.64-1.09,7.7,7.7,0,0,0-1.18.37,19,19,0,0,0-9.69,20.59c.54,2.86,1,5.73,1.44,8.6a12.69,12.69,0,0,1-1.37,8A74.87,74.87,0,0,0,114.81,59.34ZM145.56,18.2c4.12,13.16,1.4,24.62-8.78,34.75A14.47,14.47,0,0,0,147,43.83a36.52,36.52,0,0,0,2-18.63A11.33,11.33,0,0,0,145.56,18.2Z"/><path class="cls-4" d="M71.63,237.87c1.55-1.87,3.06-.51,4.6-1.05,1.34-.8,1.46-2.61,2.17-4.06.54-1.12.9-2.33,1.47-3.43.2-.4.75-.63,1.5-1.22a12.54,12.54,0,0,1,.11,2.09c-.15,1-.42,2-.64,2.93-.86,3.94-.81,4,2.79,6,1.23.68,1.23.68,1.79,2.48-1-.06-1.85-.05-2.69-.18a2.25,2.25,0,0,0-2.85,1.72c-.58,1.9-1.2,3.8-1.82,5.69-.29.9-.61,1.79-.91,2.69l-.63,0a7.39,7.39,0,0,1-.32-1.69c.13-2.24.39-4.47.54-6.7.16-2.55-.08-2.87-2.48-3.93C73.46,238.83,72.7,238.4,71.63,237.87Z"/><path class="cls-4" d="M91.13,139.41c0,1.13,0,2.27,0,3.4,0,.74-.17,1.48-.21,2.23A3.42,3.42,0,0,0,93.57,149c1.18.33,1.15.45,1.8,1.94l-4.53.09c-2.69,2.39-1.59,6.15-3.54,8.85-1.73-1.39-.81-3.07-.91-4.48a38.81,38.81,0,0,1,.33-5l-3.87-2.76c.53-1.3,1.69-1.08,2.59-1.07a2.88,2.88,0,0,0,3-2.41c.38-1.28.78-2.55,1.25-3.79a4.61,4.61,0,0,1,.81-1.09Z"/><path class="cls-4" d="M49.63,173.24c0,2.12,0,3.8,0,4.91,1.14,2.07,3.75,1.36,4.26,3.89l-2.52,0c-.73,0-1.47,0-2.12,0-1.52,2.25-.41,5.38-2.78,7.46-1.75-2.53-.44-5.08-1.23-7.62l-4-1.61c1.12-2.08,3.1-.9,4.41-1.51C47.52,177.42,46.42,174.19,49.63,173.24Z"/><path class="cls-4" d="M59.94,212.83c-1.32-2.18-.36-4.3-.56-6.61l-3.86.34c-.07-.17-.13-.34-.19-.51l3.18-1.55-1.77-3.2.36-.29c.45.29.93.55,1.35.88s.85.75,1.46,1.31l1.16-3.2.41.06c.07,1.19.14,2.38.23,3.83l7-1.37.18.64c-2,1.35-4.51,1.56-6.9,2.55l2,4-.45.39-2.25-1.5Z"/><path class="cls-4" d="M122.64,158.76l-2.11,3.73,3.85,1.57-.09.5c-.52,0-1,.09-1.55.06s-1.14-.15-1.83-.24c-.4,1.88,1.67,3.56.15,5.81l-2.36-5.05-3.54,3.6c-.43-2.51,1.49-3.35,2-5.11l-3-1.27c0-.13,0-.26,0-.39l3.48,0c-.44-1.64-.84-3.11-1.34-5,2.17.78,1.91,3,3.3,3.91l2.58-2.57Z"/><path class="cls-4" d="M104.49,185.4a4.1,4.1,0,0,1-4.61,3.26,4.37,4.37,0,0,1-3.25-4.92,4.16,4.16,0,0,1,4.92-3.15A4,4,0,0,1,104.49,185.4Zm-1.87-.55a2.12,2.12,0,0,0-1.68-2.36,2.18,2.18,0,0,0-2.49,1.84,2,2,0,0,0,1.85,2.19A2,2,0,0,0,102.62,184.85Z"/><path class="cls-4" d="M93.33,268.83a3.46,3.46,0,0,1-3.77,2.87,3.36,3.36,0,0,1-2.68-3.88A3.22,3.22,0,0,1,90.64,265,3.13,3.13,0,0,1,93.33,268.83Zm-1.58-.13c0-1.05-.41-1.86-1.53-1.77a2,2,0,0,0-1.31,1.15,1.67,1.67,0,0,0,.64,1.41C90.49,270.11,91.24,269.65,91.75,268.7Z"/><path class="cls-4" d="M30.93,206.44a3.34,3.34,0,0,1-3.72,2.85,3.23,3.23,0,0,1-2.63-3.84,3.06,3.06,0,0,1,3.51-2.71A3.24,3.24,0,0,1,30.93,206.44Zm-3.48,1.49c.82-.77,1.5-1.14,1.76-1.71.35-.76-.48-1.89-1.25-1.7a2.26,2.26,0,0,0-1.5,1.26C26.34,206.27,27,207,27.45,207.93Z"/><path class="cls-4" d="M113.91,201c.28-2.59,3.13-5.73,5.37-6.12C119.45,196.81,116.9,199.81,113.91,201Z"/><path class="cls-4" d="M11.58,211.62c-2.35-1-3.82-5.16-2.87-8.19A24.42,24.42,0,0,1,11.58,211.62Z"/><path class="cls-4" d="M140.92,171.48a10,10,0,0,1,4.45-6.28,6.59,6.59,0,0,1,.15,2A9.32,9.32,0,0,1,140.92,171.48Z"/><path class="cls-4" d="M105.74,246.26c-1.87-1.52-2.74-5.09-1.71-7A6.39,6.39,0,0,1,105.74,246.26Z"/><path class="cls-4" d="M110.73,264.89c1.32,3.25.59,6.17-2,8.12.31-2.3.52-4.25.85-6.17A8.59,8.59,0,0,1,110.73,264.89Z"/><path class="cls-4" d="M71.43,284c-2.66.28-5.71-2.25-6.44-5.33A23.49,23.49,0,0,1,71.43,284Z"/><path class="cls-4" d="M100.55,227.68a16.5,16.5,0,0,1,1.39,7.27c-2.2-1.1-2.22-3-2.58-4.57C99.15,229.48,98.88,228.35,100.55,227.68Z"/><path class="cls-4" d="M111.09,258.56c-2-2.31-2.78-4.93-2.12-6.7A5.24,5.24,0,0,1,111.09,258.56Z"/><path class="cls-4" d="M51.68,260.73c-2.3-1.31-3.25-3.51-4.2-6C49.76,255.11,51.88,258.07,51.68,260.73Z"/><path class="cls-4" d="M128.12,186.23a13.67,13.67,0,0,1-5.21,5.58C122.86,189.22,125.51,186.23,128.12,186.23Z"/><path class="cls-4" d="M101.4,283.08a17.85,17.85,0,0,1,3.81-5.63,1.49,1.49,0,0,1,.49,2.31C104.68,281.31,103.73,283,101.4,283.08Z"/><path class="cls-4" d="M43.29,158.3c-1.37,2.88-4.09,4.44-6.14,3.59A11.47,11.47,0,0,1,43.29,158.3Z"/><path class="cls-4" d="M110.62,205.35a13.87,13.87,0,0,1-4.71,5.44C106.16,207.36,108.07,205,110.62,205.35Z"/><path class="cls-4" d="M21.84,171.57c-1.55,1.74-2.68,3.94-5.27,4.86A5.36,5.36,0,0,1,21.84,171.57Z"/><path class="cls-4" d="M43.55,250.16c-2.48-.85-4.6-3.88-4-5.5A7,7,0,0,1,43.55,250.16Z"/><path class="cls-4" d="M59.62,272.61c-2.25-1.31-3.41-3.37-4.21-5.91C57.44,267,59.74,270.08,59.62,272.61Z"/><path class="cls-4" d="M20.25,225.49,24.92,230l-.28.61c-.47,0-1,.12-1.41-.09C21.5,229.57,20,227.4,20.25,225.49Z"/><path class="cls-4" d="M62.52,143.75c-.75,2.88-3.06,4.79-5.44,4.49A11.12,11.12,0,0,1,62.52,143.75Z"/><path class="cls-4" d="M102.91,215.33c.12,2.56-1.11,4.27-2.09,6.24C99.32,219.53,100.24,216.68,102.91,215.33Z"/><path class="cls-4" d="M10.92,185.84c-.78-2.55.65-5.26,3.44-6.44C13.33,181.79,12.73,184,10.92,185.84Z"/><path class="cls-4" d="M47.49,155.46a14.72,14.72,0,0,1,5.64-4.11C52.66,153.94,49.77,156,47.49,155.46Z"/><path class="cls-4" d="M84.15,288.18a5.74,5.74,0,0,1-7.34-1.13A24,24,0,0,1,84.15,288.18Z"/><path class="cls-4" d="M95.11,286.67c-1.41,2.21-3.35,3-5.38,2.08C91.85,286.48,93.69,285.77,95.11,286.67Z"/><path class="cls-4" d="M17,222.28A5.45,5.45,0,0,1,14,216.83C16,217.88,17.56,220.67,17,222.28Z"/><path class="cls-4" d="M26.11,168.15c1.9-1.79,3.55-3.06,6.13-3.17C30.71,167.5,28.48,168.71,26.11,168.15Z"/><path class="cls-4" d="M132.87,180.94c.15-2.63,1.35-4.27,3.32-4.79C136.52,178,135.56,179.47,132.87,180.94Z"/><path class="cls-4" d="M78.73,125.83c-.16,3-1.58,4.57-3.7,4.39A8.08,8.08,0,0,1,78.73,125.83Z"/><path class="cls-4" d="M33.92,240.2c-2.41-.82-3.66-2.46-3.4-4.44C32.66,236.49,34.17,238.48,33.92,240.2Z"/><path class="cls-4" d="M82.08,121.4A4.49,4.49,0,0,1,85,116.59,4.62,4.62,0,0,1,82.08,121.4Z"/><path class="cls-4" d="M67.2,139.17A4.62,4.62,0,0,1,71,135C70.88,137.17,69.64,138.58,67.2,139.17Z"/><path class="cls-4" d="M8.61,197.28c-1.72-2-1.59-3.95.33-6.29A15.42,15.42,0,0,1,8.61,197.28Z"/><path class="cls-4" d="M92.2,103.63c-.31-3.48.8-5.3,3.4-5.7C95.19,100.21,94,101.8,92.2,103.63Z"/><path class="cls-4" d="M156.82,145.54c-.77,2-1.7,3.5-3.69,4.34C152.86,147.65,154,146.32,156.82,145.54Z"/><path class="cls-4" d="M122.6,83.19a4.45,4.45,0,0,1-3,4.28C119.51,85,120.57,83.49,122.6,83.19Z"/><path class="cls-4" d="M97.17,101c-.14-2.67.4-3.58,2.36-4.24C99.92,98.76,99.41,99.75,97.17,101Z"/><path class="cls-4" d="M133.73,121.06c0,2.9-.53,3.8-2.52,4.43C131,123.55,131.43,122.75,133.73,121.06Z"/><path class="cls-4" d="M124.25,88.6c-.08,2.29-.71,3.36-2.56,4.36C121.34,90.78,122,89.66,124.25,88.6Z"/><path class="cls-4" d="M176,127c-.61,1.74-1,3.43-3.07,4C172.86,128.7,173.7,127.57,176,127Z"/><path class="cls-4" d="M173.67,136.27c-.33-1.94.67-3,2.16-4C176.31,134.36,175.71,135.47,173.67,136.27Z"/><path class="cls-4" d="M169.33,151.84a3.23,3.23,0,0,1-1.87,3.38C166.76,153.58,167.12,152.88,169.33,151.84Z"/><path class="cls-4" d="M61,283.27c-2.14-2.48-4.48-4.82-6.36-7.49a73.9,73.9,0,0,1-4-7.45c-.39-.71-.91-1.35-1.37-2A15.06,15.06,0,0,1,48,264.44c-4.63-9.88-7.8-20.15-8.15-31.15a8.19,8.19,0,0,1,0-1c0-.25.09-.49.15-.82.79,4.54,1.42,9,2.36,13.41a47.2,47.2,0,0,0,4.51,12.84C46.34,251.81,45.12,246,46,240c1,11.09,2.73,22,8.37,31.86a77.87,77.87,0,0,1-3.25-25c1,12.76,3.88,24.95,10.35,36.13C61.32,283.07,61.16,283.17,61,283.27Z"/><path class="cls-4" d="M21.21,188.92c-1.12,11.81-1.35,23.65.54,35.46.94,5.93,2.28,11.77,5.47,17a8.88,8.88,0,0,1,.65,1.78c-4.6-2.48-6.49-6.7-8-11.21a77.28,77.28,0,0,1-3.8-30c.59-8,1.45-15.89,3.94-23.56-.22,1.14-.45,2.28-.66,3.42s-.49,2.28-.64,3.44c-1.48,11-2.6,22-.75,33,.64,3.85,1.63,7.64,2.51,11.45a9,9,0,0,0,1.06,2.47A116.65,116.65,0,0,1,21.21,188.92Z"/><path class="cls-4" d="M123.19,137.77l-.81,1.07c-1.53-1.84-3-3.54-4.37-5.25-.42-.52-.67-1.24-1.19-1.58-2.69-1.77-3.8-4.57-4.88-7.36-2.73-7-3.22-14.33-2.76-21.77.71,7.19,1.23,14.4,4.33,21.11-.29-3.72-1.33-7.37-.8-11.19,1.35,9.28,4.08,18,10.53,25Z"/><path class="cls-4" d="M117.34,58.76c1.32-3.23,2.88-5.95,3.49-8.86s.24-6,.3-9c.34,1,.71,2.14,1.08,3.26l.34,0a13.38,13.38,0,0,0-.16-1.8c-.58-2.43-1.24-4.83-1.81-7.26a18.93,18.93,0,0,1,0-9.13,6.12,6.12,0,0,1,.32-.94c.06-.13.22-.23.63-.62-.14,1.43-.29,2.56-.36,3.71a28.68,28.68,0,0,0,1.42,9.8,56.45,56.45,0,0,1,1.82,8,14.29,14.29,0,0,1-.25,5.17,8.25,8.25,0,0,1-2,3.62A51.08,51.08,0,0,1,117.34,58.76Z"/><path class="cls-4" d="M19.37,234.92c-.46-.84-.93-1.67-1.36-2.53-4.14-8.3-5.5-17.2-5.64-26.34a135.26,135.26,0,0,1,1.79-21.83c.43-2.92,1.29-5.79,2.07-9.15-.86,7.19-1.86,13.85-2.39,20.54a95,95,0,0,0,.49,19.87c.88,6.69,3.16,13,5.61,19.2Z"/><path class="cls-4" d="M14.64,228.53A15.94,15.94,0,0,1,11.26,222a63.74,63.74,0,0,1-2.4-19A96.72,96.72,0,0,1,12,179.07a5,5,0,0,1,1.32-2.47c-.82,4.24-1.89,8.44-2.39,12.72a102,102,0,0,0-.67,13.42,82.26,82.26,0,0,0,1.05,13.13C12,220.16,13.49,224.32,14.64,228.53Z"/><path class="cls-4" d="M56.81,237.33a127.57,127.57,0,0,0,1.28,26c1.43,8.58,4.57,16.57,8,24.45C56.2,272.2,54.31,255.16,56.81,237.33Z"/><path class="cls-4" d="M101.32,84.94c0,6.32-.17,12.64-.09,19a48,48,0,0,0,4.34,18.22,5.2,5.2,0,0,1-2.61-2.94A32.63,32.63,0,0,1,99.72,105c0-5.46.34-10.92.64-16.38a22.44,22.44,0,0,1,.82-3.73Z"/><path class="cls-4" d="M35.24,247.56l-.36.63c-6.69-6.85-11.17-33.74-6.65-48-.17,1.43-.39,2.86-.51,4.29-1.25,14.3.4,28.15,6.32,41.35a11.46,11.46,0,0,0,1.24,1.76Z"/><path class="cls-4" d="M31.45,245.7c-7.11-7.24-11.63-38-7.49-49.1C22.55,213.44,23.9,230,31.45,245.7Z"/><path class="cls-4" d="M125.41,137.34c-.12-.8-.19-1.62-.36-2.41-.94-4.36-1.91-8.72-2.86-13.08l.5-.12c.84,3.28,1.65,6.57,2.54,9.84a31,31,0,0,0,4.17,9.48l-1.26-9.64.46-.06c.63,2.71,1.14,5.46,1.93,8.12s1.85,5.08,2.82,7.7a2.82,2.82,0,0,1-2.89-1.49c-1.29-1.71-2.51-3.47-3.76-5.21Z"/><path class="cls-4" d="M10.17,224c-.48-.72-1-1.42-1.43-2.18a27.82,27.82,0,0,1-3.29-13.93c0-5.63.3-11.27.82-16.88a34.16,34.16,0,0,1,2.2-7.8C6,197,4.9,210.54,10.65,223.84Z"/><path class="cls-4" d="M112.26,129.58a31.25,31.25,0,0,1-2.19-2.27,24.62,24.62,0,0,1-4.38-8.9,71.86,71.86,0,0,1-2.43-20.22,1.17,1.17,0,0,1,.46-.9c.36,3.08.58,6.18,1.12,9.22a77.8,77.8,0,0,0,2.49,11.17c1,3.12,2.84,6,4.32,9,.42.84.87,1.67,1.31,2.5Z"/><path class="cls-4" d="M35.28,247.63a22.43,22.43,0,0,0-.64-2.6c-3.08-8-5.39-16.24-5.39-24.93a65.37,65.37,0,0,1,.52-8.92,98.46,98.46,0,0,0,8,40.12q-1.28-1.87-2.57-3.74Z"/><path class="cls-4" d="M100.13,117.49c-.64-.92-1.37-1.79-1.91-2.76-2.54-4.58-3.09-9.62-3.21-14.72A30.19,30.19,0,0,1,96.7,88c-1,10-.53,19.88,4.16,29.13Z"/><path class="cls-4" d="M33.37,217.75a86.4,86.4,0,0,0,9.14,37.18C35.87,243.44,32.21,231.2,33.37,217.75Z"/><path class="cls-4" d="M77.93,293.62c-6.44-3.68-13.48-20.32-12.65-29.4A59.35,59.35,0,0,0,77.93,293.62Z"/><path class="cls-4" d="M72.73,291a6.36,6.36,0,0,1-1.36-.92,40.85,40.85,0,0,1-4.56-5.86,50.36,50.36,0,0,1-5.7-21.11c2,10.05,4.68,19.79,12.12,27.48Z"/><path class="cls-4" d="M93.47,93.74c-.19,3.44-.85,7-.45,10.48s1.87,6.75,2.86,10.08C91.08,111,89.78,99.38,93.47,93.74Z"/><path class="cls-4" d="M82.06,295.46a30.4,30.4,0,0,1-3.13-3.41,52.09,52.09,0,0,1-8.27-20.65c0-.14.08-.29.24-.75A61.34,61.34,0,0,0,82.7,295Z"/><path class="cls-4" d="M125.41,137.34l1.29,3.13c-.55,1.07-1,.33-1.42-.11-.73-.83-1.4-1.72-2.09-2.59l0,.07a26.38,26.38,0,0,0-1-2.46A39.34,39.34,0,0,1,118,122.74a8.56,8.56,0,0,1-.13-1.23,5.61,5.61,0,0,1,.27-1.06C119.78,126.65,121.62,132.43,125.41,137.34Z"/><path class="cls-4" d="M76.45,272.8a61.07,61.07,0,0,0,11,22.39C82.59,293.06,76.12,279.65,76.45,272.8Z"/><path class="cls-4" d="M147.05,39.77c-.64,7.27-6.1,13.46-13,14.56.9-1.38,2.24-1.67,3.23-2.38s2.12-1.35,3.06-2.16a20.24,20.24,0,0,0,2.78-2.85,22.35,22.35,0,0,0,2-3.16C145.71,42.64,146.23,41.45,147.05,39.77Z"/><path class="cls-4" d="M81.52,278.9C84.2,285,88,290.47,91.86,296c-.35-.07-.84,0-1.06-.23A36,36,0,0,1,81.52,278.9Z"/><path class="cls-4" d="M94.8,294.11c-4-1.82-7.4-7.71-8.37-14C88.69,285.08,91.09,290,94.8,294.11Z"/><path class="cls-4" d="M91.93,283.3c2.66,3.78,5,7.16,7.39,10.54C96.6,293.35,93.5,289.07,91.93,283.3Z"/><path class="cls-4" d="M97.37,285.53l4.87,5.65C100.24,291.13,98.37,289.07,97.37,285.53Z"/><path class="cls-4" d="M86.41,99.4c.39,2.3.79,4.69,1.2,7.08A6.64,6.64,0,0,1,86.41,99.4Z"/><path class="cls-4" d="M89.38,100.41c.33,2.31.75,5.2,1.08,7.54C88.86,106.28,88.5,104,89.38,100.41Z"/><path class="cls-4" d="M360.69,47.06c1.74,2.79,3.48,5.59,5.26,8.35.09.14.6,0,1.28,0-.56-4-3.61-6.58-4.83-10.26a10,10,0,0,1,1.65,0c1.8.33,3.59.76,5.4,1.06a4.47,4.47,0,0,0,2.22-.31c-2.61-2.26-6.2-1.69-9.09-3.5L368,37.67c-2.77-.56-3.92,1.91-6.06,2.11.06-3.3,1.26-6.36,1-9.63-1.57,1-1.79,2.71-2.16,4.3s-.77,3.36-1.3,5.7l-4.87-7.4-.6.31c.73,2.86,2.5,5.34,3.82,8.4l-9.36-1.65c-.8,1.26-.19,1.73.73,2,1.7.45,3.4.83,5.1,1.25.64.16,1.27.35,2.19.6a10.86,10.86,0,0,1-1.19,1.31c-1.73,1.31-3.51,2.54-5.22,3.87a18.05,18.05,0,0,0-1.78,1.83c1,1.37,1.82.76,2.55.26,1.59-1.08,3.15-2.19,4.66-3.37a9.57,9.57,0,0,1,2-1.55c.52,3.67-1.87,6.76-1.05,10.53,2.21-1.2,2.14-3.09,2.61-4.64s.77-3.19,1.14-4.78Z"/><path class="cls-4" d="M190.15,24.48l-9.3,5.77-.45-.54A15.38,15.38,0,0,1,183,27.48c.92-.72,1.85-1.42,2.78-2.12L188.94,23c-2.68-1.41-5.59-1.12-7.84-2.78,2.67-.85,5.3.46,8.2.19l-2.81-5.87c2.38.61,2.68,3,4.58,4.45.62-3,1.2-5.72,1.88-9,1.63,2,.55,3.49.55,4.92s-.23,2.93-.39,4.7c3.27-1.27,5.31-4.12,8.65-4.5-1.14,3.09-4.54,3.72-6.67,6.36,1.63.33,3,.57,4.45.91s3,.14,4.09,1.33c-.13,1.3-1,1-1.7,1-2.06-.27-4.12-.6-6.18-.89-.56-.08-1.13-.11-2-.2,1.14,3.4,3.79,5.79,4.41,9.17-3.28-1.11-3.35-4.91-5.82-6.9C192,28,191.72,30,191.23,32c-.45,1.8.25,4.1-2,5.26C188.63,33.07,189.81,29.07,190.15,24.48Z"/><path class="cls-4" d="M418,20.24a3.89,3.89,0,1,1-3.16-4.51A3.89,3.89,0,0,1,418,20.24Z"/><circle class="cls-4" cx="234.7" cy="110.3" r="3.89"/><path class="cls-4" d="M301.87,39.09a2.91,2.91,0,1,1-2.36-3.38A2.92,2.92,0,0,1,301.87,39.09Z"/><path class="cls-4" d="M211.23,50.37A2.91,2.91,0,1,1,208.87,47,2.92,2.92,0,0,1,211.23,50.37Z"/><path class="cls-4" d="M317.23,272.12c-1.8-.77-3.4-1.57-5.09-2.16a108.4,108.4,0,0,0-35.46-6.08,76.16,76.16,0,0,0-21.85,3A37.23,37.23,0,0,0,242.28,273a13.07,13.07,0,0,0-4.94,6.92c-.78,2.83-.54,5.47,1.69,7.65a5.63,5.63,0,0,0,3.65,1.53c.75.06,1.55,0,1.92,1-.52.92-1.4.85-2.2.85A7.74,7.74,0,0,1,235,283.8a12.8,12.8,0,0,1,2.8-9.16,22.1,22.1,0,0,1,7.26-5.9c6-3.39,12.61-5,19.38-6,11.63-1.73,23.14-.76,34.59,1.57A92.53,92.53,0,0,1,317.4,270a5.73,5.73,0,0,0,5.09,0,62.09,62.09,0,0,1,31.1-5.51,31.07,31.07,0,0,1,5.59,1.24,5.58,5.58,0,0,1,1.95,1.19c1.93,1.64,2.27,3.58.75,5.6a12.93,12.93,0,0,1-3.26,2.9,21,21,0,0,1-8.12,2.85,42,42,0,0,1-19.19-1.52c-3.25-.95-6.45-2.11-9.66-3.23a3.14,3.14,0,0,0-2.58,0,141.52,141.52,0,0,0-16.23,9.18,11,11,0,0,0-.87.74l3.65,1.92c1.86,1,3.77,1.94,5.56,3.06a3.51,3.51,0,0,0,2.9.42A23.5,23.5,0,0,1,325,288.6a16.08,16.08,0,0,1,4.24,1.72,3,3,0,0,1,1.73,3.35c-.34,1.43-1.53,2-2.84,2.27a13.51,13.51,0,0,1-7.55-.82,54.3,54.3,0,0,1-6.62-3.06,3.38,3.38,0,0,0-3.09-.25,30.21,30.21,0,0,0-11.69,7.87,10.85,10.85,0,0,0-2.14,3.59c-.76,2.16.25,3.44,2.56,3.6.78.06,1.69-.21,2.28.88-.3.27-.57.68-.93.8a5,5,0,0,1-4.9-.87,4,4,0,0,1-1.22-4.38,10.93,10.93,0,0,1,3.43-5.67,40.23,40.23,0,0,1,10.2-6.81c.45-.2.89-.45,1.65-.85a46.05,46.05,0,0,0-10.33-5.13l-2,1.22c-2.6,1.63-5.14,3.4-7.84,4.86a29.66,29.66,0,0,1-6.23,2.48,10.58,10.58,0,0,1-4.55.19,5.09,5.09,0,0,1-3.2-8.18,8.89,8.89,0,0,1,5.13-3.18,30.12,30.12,0,0,1,12.39-.68c2,.27,3.91.72,5.83,1.08Zm5.91-.16a15.22,15.22,0,0,0,1.71.81c2.55.84,5.09,1.73,7.68,2.45a40.58,40.58,0,0,0,16.72,1.47,20.77,20.77,0,0,0,7.85-2.42,15.87,15.87,0,0,0,3.26-2.63,2,2,0,0,0-.18-3.05,4,4,0,0,0-1.57-1,27.75,27.75,0,0,0-5-1.16,61.16,61.16,0,0,0-29.27,4.89A11.56,11.56,0,0,0,323.14,272Zm-25.83,12.48a7.43,7.43,0,0,0-1.13-.55,29.42,29.42,0,0,0-15.33.32,9.85,9.85,0,0,0-3,1.68,3.41,3.41,0,0,0,1.55,6,5.71,5.71,0,0,0,2.46.11,22,22,0,0,0,5.27-1.65C290.48,288.65,293.66,286.61,297.31,284.44Zm31.87,8.92c-1.41-3.15-9.82-4.64-13.71-2.48a21.3,21.3,0,0,0,10.25,3.52A3.92,3.92,0,0,0,329.18,293.36Z"/></g></g></g></svg>